<svg xmlns="http://www.w3.org/2000/svg" xmlns:xlink="http://www.w3.org/1999/xlink" fill="none" version="1.1" width="24" height="24" viewBox="0 0 24 24"><defs><clipPath id="master_svg0_7_057"><rect x="0" y="0" width="24" height="24" rx="0"/></clipPath></defs><g clip-path="url(#master_svg0_7_057)"><g><path d="M22.58462236328125,8.1348023046875Q23.13172236328125,8.1348023046875,23.51232236328125,8.4797123046875Q23.89292236328125,8.8246123046875,23.89292236328125,9.3241123046875L23.89292236328125,16.3409123046875Q23.89292236328125,16.8167123046875,23.51232236328125,17.1616123046875Q23.13172236328125,17.5065123046875,22.58462236328125,17.5065123046875L22.15652236328125,17.5065123046875Q21.60942236328125,17.5065123046875,21.22892236328125,17.1616123046875Q20.84832236328125,16.8167123046875,20.84832236328125,16.3409123046875L20.84832236328125,9.3241123046875Q20.84832236328125,8.8245923046875,21.22892236328125,8.4797123046875Q21.60942236328125,8.1348223046875,22.15652236328125,8.1348023046875L22.58462236328125,8.1348023046875ZM3.29429236328125,8.1348023046875Q3.84137236328125,8.1348023046875,4.19815236328125,8.4797123046875Q4.55494236328125,8.8246123046875,4.55494236328125,9.3241123046875L4.55494236328125,16.3409123046875Q4.55494236328125,16.8167123046875,4.19815236328125,17.1616123046875Q3.84137236328125,17.5065123046875,3.29429236328125,17.5065123046875L2.86613236328125,17.5065123046875Q2.31905536328125,17.5065123046875,1.93847736328125,17.1616123046875Q1.55789893868125,16.8167123046875,1.55792236328125,16.3409123046875L1.55792236328125,9.3241123046875Q1.55792236328125,8.8245923046875,1.93850036328125,8.4797123046875Q2.31907836328125,8.1348223046875,2.86615236328125,8.1348023046875L3.29429236328125,8.1348023046875ZM16.42412236328125,2.6164623046875Q16.85232236328125,2.8067823046875,17.316122363281252,3.1397523046875Q17.77992236328125,3.4727323046875,18.20802236328125,3.9246823046875Q18.63622236328125,4.3766223046875,18.95732236328125,4.9118223046875Q19.27842236328125,5.4470123046875,19.42112236328125,6.0416423046875L5.91073236328125,6.0416423046875Q6.29131236328125,4.7809923046875,7.11193236328125,3.9722823046875Q7.93255236328125,3.1635723046875,8.76505236328125,2.6878323046875L7.55197236328125,0.7849433046875Q7.50439236328125,0.7373653046875,7.54009236328125,0.6065833046875Q7.57578236328125,0.4758023046875,7.78984236328125,0.3330213046875Q7.98012236328125,0.1665211046875,8.146632363281249,0.1784038696875Q8.31313236328125,0.1902867046875,8.36068236328125,0.2378882046875L9.59759236328125,2.1883323046875Q10.26359236328125,1.8791023046875,11.00096236328125,1.7126023046875Q11.73832236328125,1.5461023046875,12.52322236328125,1.5461023046875Q14.14072236328125,1.5461023046875,15.54402236328125,2.2121223046875L16.80472236328125,0.23788790468749998Q16.85232236328125,0.1903098046875,16.98312236328125,0.1903098046875Q17.113922363281247,0.1903098046875,17.375622363281252,0.3330443046875Q17.61342236328125,0.4519423046875,17.64912236328125,0.5470993046875Q17.68482236328125,0.6422553046874999,17.63722236328125,0.6898333046875L16.42412236328125,2.6164623046875ZM9.78783236328125,4.6620723046875Q10.09707236328125,4.6620723046875,10.31112236328125,4.4479923046875Q10.52518236328125,4.2339123046875,10.52520236328125,3.9247023046875Q10.52523236328125,3.6154923046875,10.31112236328125,3.4014123046875Q10.09702236328125,3.1873323046875,9.78783236328125,3.1873323046875Q9.478652363281249,3.1873323046875,9.264542363281251,3.4014123046875Q9.050442363281249,3.6154923046875,9.05049236328125,3.9247023046875Q9.050542363281249,4.2339123046875,9.264542363281251,4.4479923046875Q9.47855236328125,4.6620723046875,9.78783236328125,4.6620723046875ZM15.63922236328125,4.5669123046875Q15.94842236328125,4.5669123046875,16.162522363281248,4.3528623046875Q16.37652236328125,4.1388023046875,16.37652236328125,3.8295423046875Q16.37652236328125,3.5202823046875,16.162522363281248,3.3062523046875Q15.94842236328125,3.0922223046875,15.63922236328125,3.0922023046875Q15.32992236328125,3.0921823046875,15.11592236328125,3.3062523046875Q14.90182236328125,3.5203323046875,14.90182236328125,3.8295423046875Q14.90182236328125,4.1387523046875,15.11592236328125,4.3528623046875Q15.32992236328125,4.5669623046875,15.63922236328125,4.5669123046875ZM19.42112236328125,7.5401723046875L19.44492236328125,18.2438123046875Q19.44492236328125,18.7671123046875,19.10002236328125,19.1239123046875Q18.75512236328125,19.4807123046875,18.25562236328125,19.4807123046875L17.92262236328125,19.4807123046875L17.92262236328125,22.8107123046875Q17.92262236328125,23.2864123046875,17.57772236328125,23.6432123046875Q17.23282236328125,24.0000123046875,16.73332236328125,24.0000123046875L16.043522363281248,24.0000123046875Q15.56782236328125,24.0000123046875,15.22292236328125,23.6432123046875Q14.87802236328125,23.2864123046875,14.87802236328125,22.8107123046875L14.87802236328125,19.4807123046875L10.50141236328125,19.4807123046875L10.50141236328125,22.8107123046875Q10.50141236328125,23.2864123046875,10.15653236328125,23.6432123046875Q9.81165236328125,24.0000123046875,9.31212236328125,24.0000123046875L8.622362363281251,24.0000123046875Q8.14665236328125,24.0000123046875,7.80174236328125,23.6432123046875Q7.45684236328125,23.2864123046875,7.45686236328125,22.8107123046875L7.45686236328125,19.4807123046875L7.19520236328125,19.4807123046875Q6.69570236328125,19.4807123046875,6.35080236328125,19.1239123046875Q6.00589236328125,18.7671123046875,6.00591236328125,18.2438123046875L6.00591236328125,7.5401423046875L19.42112236328125,7.5401423046875L19.42112236328125,7.5401723046875Z" fill="#3D3D3D" fill-opacity="1" style="mix-blend-mode:passthrough"/></g></g></svg>