<svg xmlns="http://www.w3.org/2000/svg" xmlns:xlink="http://www.w3.org/1999/xlink" fill="none" version="1.1" width="70" height="70" viewBox="0 0 70 70"><defs><clipPath id="master_svg0_7_092"><rect x="0" y="0" width="70" height="70" rx="0"/></clipPath></defs><g clip-path="url(#master_svg0_7_092)"><g><path d="M5.5830164453125,14.321759517150879C6.3324564453125,13.696405517150879,7.3055064453125,13.33896827715088,8.2857064453125,13.33768081715088C15.1977564453125,13.33703565715088,22.1098564453125,13.33896827715088,29.0212564453125,13.33639192715088C30.2952564453125,13.289378117150878,31.5432564453125,13.90571551715088,32.3518564453125,14.86853851715088C39.4849564453125,21.94643851715088,46.6296564453125,29.01337851715088,53.7640564453125,36.08997851715088C54.9828564453125,37.303378517150875,55.5385564453125,39.12277851715088,55.2057564453125,40.80237851715088C55.0029564453125,41.88437851715088,54.4465564453125,42.89357851715088,53.6483564453125,43.65667851715088C47.3856564453125,49.85997851715088,41.1248564453125,56.06457851715088,34.8634564453125,62.26857851715088C34.523456445312505,62.59507851715088,34.2075564453125,62.94867851715088,33.8351564453125,63.24037851715088C32.9628564453125,63.93657851715088,31.8669564453125,64.33657851715088,30.7515564453125,64.40477851715087L30.2244564453125,64.40477851715087C28.9211564453125,64.33337851715088,27.6465564453125,63.79297851715088,26.7176564453125,62.881078517150875C19.5709564453125,55.79987851715088,12.4235864453125,48.72007851715088,5.2781664453125,41.637678517150874C4.7276164453125,41.083178517150884,4.3363184453125,40.37537851715088,4.1627684453125,39.61667851715088C3.9918193453125,38.896678517150875,4.0769689453125,38.15217851715088,4.0561690153125,37.42057851715088L4.0561690153125,17.97018851715088C4.0535690293125,17.58248851715088,4.0496690253125,17.19155851715088,4.1237687453125,16.80900851715088C4.2960184453125,15.844248517150879,4.8238164453125,14.94839851715088,5.5830164453125,14.321759517150879ZM18.631056445312502,21.715878517150877C17.6827564453125,21.80346851715088,16.7558564453125,22.10228851715088,15.9342564453125,22.580158517150878C14.6179564453125,23.34137851715088,13.5812364453125,24.568978517150878,13.0677364453125,25.991578517150877C12.4976864453125,27.53727851715088,12.5509864453125,29.296078517150878,13.2152864453125,30.80447851715088C13.8958264453125,32.38037851715088,15.2335564453125,33.66197851715088,16.8442564453125,34.286678517150875C18.120856445312498,34.789678517150875,19.5579564453125,34.875978517150884,20.8884564453125,34.54107851715088C22.6226564453125,34.110278517150874,24.1527564453125,32.94257851715088,25.0166564453125,31.392478517150877C25.8037564453125,30.00907851715088,26.0436564453125,28.33517851715088,25.6913564453125,26.787578517150877C25.3494564453125,25.24387851715088,24.4134564453125,23.84117851715088,23.1179564453125,22.92085851715088C21.8361564453125,21.99538851715088,20.2085564453125,21.55937851715088,18.631056445312502,21.715878517150877ZM38.5541564453125,32.384278517150875C37.8287564453125,32.50147851715088,37.1475564453125,32.85507851715088,36.6320564453125,33.37347851715088C32.7223564453125,37.24607851715088,28.8132564453125,41.11987851715088,24.9041564453125,44.99247851715088C24.5694564453125,45.32927851715088,24.2054564453125,45.64807851715088,23.9623564453125,46.060878517150876C23.3974564453125,46.94577851715088,23.2817564453125,48.089578517150876,23.6431564453125,49.07237851715088C23.8498564453125,49.66097851715088,24.2392564453125,50.167278517150876,24.6987564453125,50.58647851715088C25.1381564453125,51.05667851715088,25.6523564453125,51.47587851715088,26.2704564453125,51.68837851715088C27.2994564453125,52.065178517150876,28.5032564453125,51.93247851715088,29.4158564453125,51.325878517150876C29.7804564453125,51.09717851715088,30.0690564453125,50.77517851715088,30.3739564453125,50.47767851715088C34.100956445312505,46.784778517150876,37.8280564453125,43.091878517150874,41.5558564453125,39.39907851715088C41.9263564453125,39.01777851715088,42.3449564453125,38.67187851715088,42.6302564453125,38.21787851715088C43.3212564453125,37.16617851715088,43.3634564453125,35.73967851715088,42.7368564453125,34.649278517150876C42.4521564453125,34.11857851715088,41.9861564453125,33.723778517150876,41.5662564453125,33.30387851715088C40.7829564453125,32.54847851715088,39.6305564453125,32.19877851715088,38.5541564453125,32.384278517150875Z" fill="#06C839" fill-opacity="1" style="mix-blend-mode:passthrough"/></g><g><path d="M28.9998779296875,10.6579C30.2667179296875,10.73003,31.4601179296875,11.400459999999999,32.2674179296875,12.35749C40.1629779296875,20.1844,48.061677929687505,28.0081,55.9591779296875,35.8331C56.6864779296875,36.507400000000004,57.2740779296875,37.3394,57.598477929687505,38.2765C57.9227779296875,39.2245,58.1015779296875,40.2588,57.8649779296875,41.2474C57.6627779296875,42.4672,57.0647779296875,43.6129,56.184677929687496,44.4882C50.708477929687504,49.9096,45.2419779296875,55.3401,39.7599779296875,60.7551C46.424377929687495,58.9454,53.0868779296875,57.1299,59.750577929687495,55.3176C60.3017779296875,55.1598,60.8705779296875,55.0438,61.3924779296875,54.7998C62.0886779296875,54.4861,62.7139779296875,54.0218,63.2157779296875,53.4499C64.3746779296875,52.1438,64.8199779296875,50.2568,64.3493779296875,48.5791C61.8650779296875,39.6019,59.3742779296875,30.6261,56.8873779296875,21.648899999999998C56.6760779296875,20.8581,56.432377929687505,20.0749,56.2490779296875,19.277C55.9818779296875,18.2864,55.3403779296875,17.3932,54.465477929687495,16.8425C48.3990779296875,13.422080000000001,42.3332779296875,10.00034,36.2661979296875,6.58118C35.4861979296875,6.128427,34.5606079296875,5.924269,33.6610079296875,6.0253818C32.602167929687496,6.133579,31.5907679296875,6.65138,30.8946179296875,7.45062C30.6450179296875,7.73013,30.4454679296875,8.04828,30.2654179296875,8.37481C29.8793239296875,9.04524,29.4964749296875,9.71761,29.1077769296875,10.386759999999999C29.0616264296875,10.47242,28.9998779296875,10.55678,28.9998779296875,10.6579Z" fill="#06C839" fill-opacity="0.4000000059604645" style="mix-blend-mode:passthrough"/></g></g></svg>