<svg xmlns="http://www.w3.org/2000/svg" xmlns:xlink="http://www.w3.org/1999/xlink" fill="none" version="1.1" width="70" height="70" viewBox="0 0 70 70"><defs><clipPath id="master_svg0_7_078"><rect x="0" y="0" width="70" height="70" rx="0"/></clipPath></defs><g clip-path="url(#master_svg0_7_078)"><g><path d="M67.533448046875,29.2002189453125L47.100048046875,8.8002489453125C46.033448046875,7.7335889453124995,44.266748046875,7.7335889453124995,43.200048046875,8.8002489453125L42.466748046875,9.5335889453125L42.233448046875,9.7669189453125L40.400048046875,11.6002489453125L36.033448046875,7.2669189453125C34.966748046875,6.2002519453125,33.200048046875,6.2002519453125,32.133448046875,7.2669189453125L2.466748046875,36.8669189453125C1.400081046875,37.9336189453125,1.400081046875,39.7002189453125,2.466748046875,40.7669189453125L22.933448046875,61.2002189453125C24.000048046875,62.2669189453125,25.766748046875,62.2669189453125,26.833448046875,61.2002189453125L29.600048046875,58.4336189453125L31.200048046875,60.0336189453125L33.966748046875,62.8002189453125C35.033448046875,63.8669189453125,36.800048046875,63.8669189453125,37.866748046875,62.8002189453125L44.600048046875,56.1002189453125C45.433448046875,56.4002189453125,46.333448046875,56.6002189453125,47.266748046875,56.6002189453125C51.400048046875,56.6002189453125,54.733448046875,53.2669189453125,54.733448046875,49.1336189453125L54.733448046875,48.9669189453125C55.266748046875,49.1336189453125,55.800048046875,49.2002189453125,56.400048046875,49.2002189453125C59.433448046875,49.2002189453125,61.933448046875,46.7336189453125,61.900048046875,43.7002189453125C61.900048046875,42.3336189453125,61.400048046875,41.1002189453125,60.566748046875,40.1336189453125L67.566748046875,33.1669189453125C68.600048046875,32.0336189453125,68.600048046875,30.3002189453125,67.533448046875,29.2002189453125ZM43.500048046875,15.5002489453125C44.233448046875,14.7669189453125,45.133448046875,14.4669189453125,46.200048046875,14.5335889453125C47.233448046875,14.6335889453125,48.166748046875,15.0669189453125,48.966748046875,15.8669189453125C49.766748046875,16.6669189453125,50.200048046875,17.5669189453125,50.300048046875,18.6336189453125C50.400048046875,19.7002189453125,50.100048046875,20.6336189453125,49.366748046875,21.3669189453125C48.633448046875,22.1002189453125,47.733448046875,22.4002189453125,46.633448046875,22.3002189453125C45.566748046875,22.2002189453125,44.666748046875,21.7669189453125,43.866748046875,20.9669189453125C43.066748046875,20.1669189453125,42.633448046875,19.2336189453125,42.533448046875,18.2002189453125C42.466748046875,17.1336189453125,42.766748046875,16.233588945312498,43.500048046875,15.5002489453125ZM13.433448046875,38.5002189453125C12.400048046875,39.5336189453125,12.400048046875,41.2336189453125,13.433448046875,42.2669189453125L27.466748046875,56.2669189453125L25.233448046875,58.5002189453125L5.600088046874999,38.9002189453125L32.100048046875,12.433578945312501L34.466748046875,10.0335789453125L38.200048046875,13.7669189453125L38.033448046875,13.933578945312501L13.433448046875,38.5002189453125ZM40.200048046875,30.1669189453125C40.066748046875,30.3002189453125,39.866748046875,30.5002189453125,39.600048046875,30.8002189453125C39.333448046875,31.0669189453125,39.133448046875,31.3002189453125,39.000048046875,31.4336189453125C38.900048046875,31.5669189453125,38.800048046875,31.5669189453125,38.733448046875,31.4669189453125L38.700048046875,31.4336189453125C37.566748046875,30.2336189453125,36.866748046875,29.5002189453125,36.600048046875,29.2336189453125L35.233448046875,27.8336189453125C35.133448046875,27.7336189453125,35.100048046875,27.7336189453125,35.033448046875,27.7669189453125C35.000048046875,27.8336189453125,34.900048046875,27.9336189453125,34.833448046875,28.0669189453125C34.766748046875,28.2002189453125,34.700048046875,28.3336189453125,34.633448046875,28.4002189453125C34.533448046875,28.5002189453125,34.433448046875,28.4669189453125,34.333448046875,28.3669189453125L33.866748046875,27.9002189453125C33.666748046875,27.7002189453125,33.500048046875,27.5336189453125,33.366748046875,27.4336189453125C33.300048046875,27.3669189453125,33.300048046875,27.3002189453125,33.333448046875,27.2002189453125C33.566748046875,26.6002189453125,33.633448046875,26.0002189453125,33.566748046875,25.4669189453125C33.566748046875,25.3669189453125,33.566748046875,25.2669189453125,33.600048046875,25.2336189453125Q33.633448046875,25.2002189453125,33.666748046875,25.2002189453125C33.800048046875,25.1002189453125,34.000048046875,25.0002189453125,34.266748046875,24.8336189453125C34.400048046875,24.7336189453125,34.600048046875,24.6002189453125,34.866748046875,24.4002189453125C34.900048046875,24.3669189453125,34.966748046875,24.4002189453125,35.033448046875,24.4336189453125L35.133448046875,24.5336189453125C35.366748046875,24.8336189453125,36.033448046875,25.5002189453125,37.100048046875,26.5669189453125L38.700048046875,28.1669189453125C39.433448046875,28.8669189453125,39.966748046875,29.4002189453125,40.300048046875,29.7669189453125C40.366748046875,29.8336189453125,40.400048046875,29.9002189453125,40.400048046875,30.0002189453125C40.300048046875,30.0669189453125,40.266748046875,30.1336189453125,40.200048046875,30.1669189453125ZM38.366748046875,26.5002189453125C37.566748046875,25.7002189453125,37.133448046875,24.7669189453125,37.033448046875,23.7336189453125C36.933448046875,22.6669189453125,37.266748046875,21.7336189453125,38.000048046875,21.0336189453125C38.733448046875,20.3002189453125,39.633448046875,20.0002189453125,40.700048046875,20.0669189453125C41.733448046875,20.1669189453125,42.666748046875,20.6002189453125,43.466748046875,21.4002189453125C44.266748046875,22.2002189453125,44.700048046875,23.1002189453125,44.800048046875,24.1669189453125C44.900048046875,25.2336189453125,44.600048046875,26.1669189453125,43.866748046875,26.9002189453125C43.133448046875,27.6336189453125,42.233448046875,27.9336189453125,41.133448046875,27.8336189453125C40.066748046875,27.7002189453125,39.166748046875,27.2669189453125,38.366748046875,26.5002189453125ZM47.133448046875,55.0336189453125C46.600048046875,55.0336189453125,46.100048046875,54.9669189453125,45.633448046875,54.8336189453125C44.600048046875,54.5669189453125,43.666748046875,54.0336189453125,42.933448046875,53.3336189453125C41.833448046875,52.2669189453125,41.133448046875,50.7336189453125,41.133448046875,49.0669189453125C41.133448046875,47.8002189453125,41.533448046875,46.6336189453125,42.200048046875,45.6669189453125C42.600048046875,45.1002189453125,43.133448046875,44.5669189453125,43.700048046875,44.1669189453125C44.666748046875,43.5002189453125,45.833448046875,43.1002189453125,47.100048046875,43.1002189453125C48.466748046875,43.1002189453125,49.733448046875,43.5669189453125,50.733448046875,44.3336189453125C50.966748046875,44.5002189453125,51.166748046875,44.7002189453125,51.366748046875,44.9002189453125C51.500048046875,45.0336189453125,51.600048046875,45.1669189453125,51.733448046875,45.3002189453125C52.100048046875,45.7336189453125,52.400048046875,46.2669189453125,52.633448046875,46.8002189453125C52.733448046875,47.0336189453125,52.800048046875,47.3336189453125,52.866748046875,47.5669189453125C52.900048046875,47.7336189453125,52.933448046875,47.9336189453125,53.000048046875,48.1002189453125C53.033448046875,48.4002189453125,53.100048046875,48.7336189453125,53.100048046875,49.0336189453125C53.133448046875,52.3336189453125,50.433448046875,55.0336189453125,47.133448046875,55.0336189453125ZM56.233448046875,47.6669189453125C55.566748046875,47.6669189453125,54.900048046875,47.5002189453125,54.333448046875,47.2002189453125C54.266748046875,46.9336189453125,54.166748046875,46.6669189453125,54.066748046875,46.4002189453125C53.700048046875,45.4336189453125,53.133448046875,44.5669189453125,52.400048046875,43.8336189453125L52.166748046875,43.6002189453125C52.200048046875,41.4002189453125,53.966748046875,39.6336189453125,56.200048046875,39.6336189453125C56.333448046875,39.6336189453125,56.466748046875,39.6336189453125,56.600048046875,39.6669189453125C57.700048046875,39.7669189453125,58.666748046875,40.3336189453125,59.333448046875,41.1336189453125C59.900048046875,41.8002189453125,60.233448046875,42.7002189453125,60.233448046875,43.6669189453125C60.266748046875,45.8669189453125,58.466748046875,47.6669189453125,56.233448046875,47.6669189453125Z" fill="#06C839" fill-opacity="1" style="mix-blend-mode:passthrough"/></g><g><path d="M45.466420078125,19.400003828125C45.799750078125,19.733333828125,46.166420078125,19.933333828125,46.566420078125,19.966663828125C46.999750078125004,20.033333828125,47.366420078125,19.933333828125,47.666420078125,19.633333828125C47.966420078125,19.333333828125,48.066420078125,18.999993828125,47.966420078125,18.533333828125C47.899750078125,18.133333828125,47.699750078125,17.766664828125,47.399750078125,17.433331828125C47.066420078125,17.099997828125,46.733080078125,16.933331628125,46.299750078125,16.866665228125C45.866410078125,16.799998728125,45.533080078124996,16.899998928125,45.233080078125,17.199998828125C44.933080078125,17.499997828125,44.833080078125,17.866663828125,44.899740078125,18.266663828125C44.933080078125,18.700003828125,45.133080078125,19.066663828125,45.466420078125,19.400003828125ZM42.466410078125,24.066653828125C42.399740078125,23.666653828125,42.233080078125,23.299993828125,41.899740078125,22.966653828125C41.566400078125,22.633323828125,41.199740078125004,22.466653828125,40.833070078125,22.399993828124998C40.399739078125,22.333323828125,40.033071078125,22.433323828125,39.766405078125,22.733323828125002C39.466406278125,23.033323828125,39.366403978125,23.399993828124998,39.433069378125,23.799993828125C39.466402078125,24.199993828125,39.666402078125,24.566653828125,39.999738078125,24.866663828125C40.333073078125,25.199993828125002,40.699740078125004,25.399993828124998,41.099740078125,25.433323828124998C41.533070078125,25.499993828125,41.899740078125,25.399993828124998,42.199740078125004,25.099993828125C42.399740078125,24.866663828125,42.533070078125,24.499993828125,42.466410078125,24.066653828125ZM48.499740078125,45.700023828125C48.233080078125,45.666623828125,47.999740078125,45.600023828125,47.866410078125,45.600023828125C47.599740078125,45.533323828125,47.399740078125,45.466623828125,47.266410078125,45.466623828125L47.199740078125004,45.466623828125C47.166410078125,45.466623828125,47.099740078125,45.500023828124995,47.066410078125,45.600023828125C46.766410078125,46.033323828125,46.366410078125,46.333323828125,45.833070078125,46.600023828125C45.733070078125,46.633323828125,45.699740078125004,46.700023828125,45.699740078125004,46.766623828125L45.699740078125004,48.033323828125C45.699740078125004,48.166623828125,45.766400078125,48.266623828125,45.866400078125,48.266623828125C45.933070078125,48.266623828125,46.033070078125,48.233323828124995,46.199740078125004,48.200023828125C46.333070078125,48.166623828125,46.433070078125,48.133323828125,46.533070078125,48.133323828125C46.566410078125,48.133323828125,46.599740078125,48.200023828125,46.599740078125,48.300023828125L46.599740078125,50.366623828125C46.599740078125,50.833323828125,46.566410078125,51.633323828125,46.533070078125,52.866623828125L46.533070078125,52.933323828125C46.533070078125,53.066623828125,46.566410078125,53.133323828125,46.733070078125,53.133323828125L48.266410078125,53.133323828125C48.333070078125,53.133323828125,48.399740078125,53.100023828125,48.466410078125,53.033323828125C48.533070078125,52.966623828125,48.566410078125,52.900023828125,48.566410078125,52.833323828125L48.566410078125,52.666623828125L48.566410078125,50.766623828125L48.566410078125,48.333323828125C48.566410078125,47.066623828125,48.599740078125,46.266623828125,48.633070078125,45.933323828125L48.633070078125,45.833323828125L48.499740078125,45.700023828125Z" fill="#06C839" fill-opacity="0.4000000059604645" style="mix-blend-mode:passthrough"/></g></g></svg>