<svg xmlns="http://www.w3.org/2000/svg" xmlns:xlink="http://www.w3.org/1999/xlink" fill="none" version="1.1" width="24" height="24" viewBox="0 0 24 24"><defs><clipPath id="master_svg0_7_061"><rect x="0" y="0" width="24" height="24" rx="0"/></clipPath></defs><g clip-path="url(#master_svg0_7_061)"><g><path d="M20.97542724609375,17.39136484375C20.94542724609375,17.48136484375,20.47592724609375,19.10576484375,19.32252724609375,20.77666484375C18.32362724609375,22.21806484375,17.29012724609375,23.67146484375,15.65972724609375,23.69696484375C14.05482724609375,23.72546484375,13.54192724609375,22.74756484375,11.71052724609375,22.74756484375C9.88210724609375,22.74756484375,9.307647246093751,23.67146484375,7.79123724609375,23.72546484375C6.22383724609375,23.78846484375,5.01641724609375,22.15056484375,4.01597724609375,20.71666484375C1.96560324609375,17.77836484375,0.38919724609375006,12.39066484375,2.50406724609375,8.78041484375C3.54650724609375,6.97303484375,5.41688724609375,5.82560484375,7.45375724609375,5.79260484375C8.989667246093749,5.76410484375,10.45057724609375,6.82453484375,11.38351724609375,6.82453484375C12.34192724609375,6.82453484375,14.10882724609375,5.54211484375,15.97322724609375,5.73410484375C16.75322724609375,5.76710484375,18.93702724609375,6.05658484375,20.34392724609375,8.07996484375C20.23442724609375,8.15495484375,17.73112724609375,9.61886484375,17.75962724609375,12.60066484375C17.79712724609375,16.19896484375,20.94242724609375,17.37936484375,20.97542724609375,17.39136484375ZM14.75382724609375,3.80522484375C15.59372724609375,2.78829484375,16.14722724609375,1.39037484375,16.00172724609375,0.00146484375C14.80182724609375,0.04796194375,13.33792724609375,0.79191584375,12.46942724609375,1.80435484375C11.70002724609375,2.68629484375,11.02353724609375,4.10670484375,11.21252724609375,5.47912484375C12.54592724609375,5.55861484375,13.91682724609375,4.78616484375,14.75232724609375,3.80522484375" fill="#3D3D3D" fill-opacity="1" style="mix-blend-mode:passthrough"/></g></g></svg>