<svg xmlns="http://www.w3.org/2000/svg" xmlns:xlink="http://www.w3.org/1999/xlink" fill="none" version="1.1" width="304" height="40.79998779296875" viewBox="0 0 304 40.79998779296875"><defs><mask id="master_svg0_5_42" style="mask-type:alpha" maskUnits="objectBoundingBox"><g><path d="M0,40.8L304,40.8L304,0L0,0L0,40.8Z" fill-rule="evenodd" fill="#FFFFFF" fill-opacity="1"/></g></mask></defs><g><g><path d="M176.7680244140625,26.339203051757814L176.6384244140625,27.649603051757815L170.3744244140625,27.649603051757815L170.5184244140625,26.339203051757814L172.5776244140625,26.339203051757814L173.9024244140625,14.012803051757812L175.2560244140625,14.012803051757812L174.7520244140625,18.822403051757814L177.2864244140625,18.822403051757814L177.1568244140625,20.118403051757813L174.6080244140625,20.118403051757813L173.9456244140625,26.339203051757814L176.7680244140625,26.339203051757814ZM171.7856244140625,16.59040305175781L170.7056244140625,17.339203051757814Q170.3312244140625,16.662403051757813,169.8992244140625,16.064803051757814Q169.4672244140625,15.467203051757812,169.0064244140625,14.992003051757813L170.0720244140625,14.243203051757813Q170.5184244140625,14.761603051757813,170.9576244140625,15.352003051757812Q171.3968244140625,15.942403051757813,171.7856244140625,16.59040305175781ZM171.4544244140625,22.696003051757813L172.1168244140625,23.689603051757814Q171.1232244140625,24.59680305175781,170.0720244140625,25.439203051757815Q169.0208244140625,26.281603051757813,167.9120244140625,27.04480305175781L167.2496244140625,25.93600305175781Q167.9552244140625,25.475203051757813,168.6176244140625,24.985603051757813L169.2512244140625,19.55680305175781L167.7536244140625,19.55680305175781L167.8832244140625,18.26080305175781L169.5104244140625,18.26080305175781Q170.7200244140625,18.26080305175781,170.5616244140625,19.528003051757814L170.0288244140625,23.905603051757815Q170.7776244140625,23.315203051757813,171.4544244140625,22.696003051757813ZM182.5280244140625,26.281603051757813L183.7520244140625,25.964803051757812Q183.8960244140625,26.88640305175781,184.5008244140625,26.88640305175781Q185.39362441406251,26.88640305175781,185.5232244140625,25.84960305175781L185.5664244140625,25.504003051757813L179.6912244140625,25.504003051757813L180.3104244140625,21.990403051757813L178.8272244140625,21.990403051757813L178.9424244140625,20.896003051757813L180.5120244140625,20.896003051757813L181.0736244140625,17.68480305175781Q180.8720244140625,17.987203051757813,180.6560244140625,18.26080305175781Q180.4400244140625,18.534403051757813,180.1952244140625,18.793603051757813L179.1440244140625,17.929603051757812Q179.9216244140625,17.123203051757812,180.5264244140625,16.057603051757813Q181.1312244140625,14.992003051757813,181.49122441406251,14.012803051757812L182.7152244140625,14.416003051757812Q182.5856244140625,14.776003051757812,182.4416244140625,15.136003051757813L188.6192244140625,15.136003051757813L188.4752244140625,16.36000305175781L181.8656244140625,16.36000305175781Q181.7360244140625,16.61920305175781,181.5848244140625,16.878403051757815Q181.4336244140625,17.137603051757814,181.2752244140625,17.396803051757814L186.8048244140625,17.396803051757814Q187.30882441406249,17.396803051757814,187.5752244140625,17.692003051757812Q187.8416244140625,17.987203051757813,187.7696244140625,18.505603051757813L187.4672244140625,20.896003051757813L188.9216244140625,20.896003051757813L188.8064244140625,21.990403051757813L187.3232244140625,21.990403051757813L187.0208244140625,24.366403051757814L187.8128244140625,24.366403051757814L187.6976244140625,25.504003051757813L186.8768244140625,25.504003051757813L186.8192244140625,25.993603051757812Q186.6896244140625,26.972803051757815,186.0920244140625,27.527203051757812Q185.4944244140625,28.08160305175781,184.5584244140625,28.08160305175781Q183.7376244140625,28.08160305175781,183.1904244140625,27.62080305175781Q182.6432244140625,27.160003051757812,182.5280244140625,26.281603051757813ZM181.7792244140625,20.896003051757813L186.1712244140625,20.896003051757813L186.4736244140625,18.563203051757814L182.1968244140625,18.563203051757814L181.7792244140625,20.896003051757813ZM185.3504244140625,19.888003051757813L184.7888244140625,20.723203051757814Q184.3712244140625,20.42080305175781,183.91762441406252,20.147203051757813Q183.4640244140625,19.87360305175781,182.9600244140625,19.643203051757812L183.5216244140625,18.822403051757814Q184.0400244140625,19.024003051757813,184.5008244140625,19.29760305175781Q184.9616244140625,19.571203051757813,185.3504244140625,19.888003051757813ZM181.1600244140625,24.366403051757814L185.71042441406252,24.366403051757814L186.0272244140625,21.990403051757813L181.5920244140625,21.990403051757813L181.1600244140625,24.366403051757814ZM184.8896244140625,23.344003051757813L184.3280244140625,24.164803051757815Q183.9104244140625,23.833603051757812,183.4424244140625,23.567203051757815Q182.9744244140625,23.30080305175781,182.4704244140625,23.04160305175781L183.0176244140625,22.235203051757814Q184.0832244140625,22.71040305175781,184.8896244140625,23.344003051757813ZM200.4848244140625,19.412803051757813L200.3408244140625,20.75200305175781L190.6208244140625,20.75200305175781L190.7648244140625,19.412803051757813L200.4848244140625,19.412803051757813ZM211.0256244140625,15.740803051757812L210.3776244140625,21.77440305175781L203.48002441406248,21.77440305175781L204.2432244140625,14.502403051757813L209.8592244140625,14.502403051757813Q210.5360244140625,14.502403051757813,210.8096244140625,14.848003051757813Q211.0832244140625,15.193603051757812,211.0256244140625,15.740803051757812ZM204.9344244140625,20.507203051757813L209.1824244140625,20.507203051757813L209.68642441406251,15.784003051757812L205.4240244140625,15.784003051757812L204.9344244140625,20.507203051757813ZM208.9232244140625,22.552003051757815Q209.5424244140625,23.64640305175781,210.1040244140625,24.870403051757812Q210.6656244140625,26.094403051757812,211.1120244140625,27.419203051757812L209.9168244140625,27.952003051757814Q209.4272244140625,26.58400305175781,208.85842441406248,25.360003051757815Q208.2896244140625,24.13600305175781,207.7424244140625,23.113603051757813L208.9232244140625,22.552003051757815ZM202.7024244140625,28.03840305175781L201.7376244140625,27.116803051757813Q202.6448244140625,26.051203051757813,203.3000244140625,24.949603051757812Q203.9552244140625,23.848003051757814,204.5744244140625,22.58080305175781L205.7552244140625,23.09920305175781Q205.1360244140625,24.45280305175781,204.4088244140625,25.66960305175781Q203.6816244140625,26.88640305175781,202.7024244140625,28.03840305175781ZM213.5456244140625,21.500803051757813Q214.0064244140625,20.65120305175781,214.22242441406252,19.79440305175781Q214.4384244140625,18.93760305175781,214.5248244140625,17.97280305175781L214.6544244140625,16.475203051757813L214.23682441406248,16.014403051757814Q214.7408244140625,15.524803051757813,215.0792244140625,15.064003051757812Q215.41762441406252,14.603203051757813,215.6768244140625,13.984003051757812L216.6560244140625,14.185603051757813Q216.5696244140625,14.416003051757812,216.4544244140625,14.646403051757812L217.7360244140625,14.646403051757812Q218.1536244140625,14.646403051757812,218.3192244140625,14.804803051757812Q218.4848244140625,14.963203051757812,218.4632244140625,15.200803051757813Q218.44162441406252,15.438403051757813,218.2976244140625,15.640003051757812Q218.21122441406249,15.769603051757812,218.08882441406251,15.913603051757812Q217.9664244140625,16.057603051757813,217.8512244140625,16.201603051757814L218.3120244140625,16.201603051757814Q218.7440244140625,16.201603051757814,218.9240244140625,16.46800305175781Q219.1040244140625,16.734403051757813,219.0752244140625,17.10880305175781L218.7296244140625,20.737603051757812Q218.6720244140625,21.356803051757815,218.3408244140625,21.702403051757813Q218.0096244140625,22.04800305175781,217.24642441406252,22.04800305175781L217.1024244140625,22.04800305175781L217.0736244140625,21.01120305175781L217.2320244140625,21.01120305175781Q217.6496244140625,21.01120305175781,217.6928244140625,20.564803051757814L217.7504244140625,20.017603051757813L216.9872244140625,20.017603051757813L216.8432244140625,21.457603051757815L215.9216244140625,21.457603051757815L216.06562441406248,20.017603051757813L215.2592244140625,20.017603051757813Q215.1296244140625,20.564803051757814,214.9496244140625,21.03280305175781Q214.7696244140625,21.500803051757813,214.53922441406252,21.932803051757812L213.5456244140625,21.500803051757813ZM222.3008244140625,16.403203051757814Q222.4160244140625,16.403203051757814,222.4736244140625,16.244803051757813Q222.5312244140625,16.086403051757813,222.5456244140625,15.899203051757812L222.6032244140625,15.467203051757812L221.4080244140625,15.467203051757812Q221.14882441406252,16.64800305175781,220.0400244140625,17.339203051757814L219.2624244140625,16.720003051757814Q219.7376244140625,16.417603051757812,219.9968244140625,16.122403051757814Q220.2560244140625,15.827203051757813,220.3712244140625,15.467203051757812L219.3632244140625,15.467203051757812L219.4640244140625,14.430403051757812L222.6896244140625,14.430403051757812Q223.7264244140625,14.430403051757812,223.5968244140625,15.424003051757813L223.5104244140625,16.10080305175781Q223.4240244140625,16.74880305175781,223.1576244140625,17.044003051757812Q222.8912244140625,17.339203051757814,222.3728244140625,17.339203051757814Q221.9552244140625,17.339203051757814,221.6600244140625,17.08720305175781Q221.3648244140625,16.835203051757812,221.2928244140625,16.158403051757812L222.0560244140625,16.014403051757814Q222.0992244140625,16.403203051757814,222.3008244140625,16.403203051757814ZM215.4752244140625,16.201603051757814L216.6848244140625,16.201603051757814Q217.0016244140625,15.884803051757812,217.26082441406248,15.510403051757812L215.97922441406251,15.510403051757812Q215.74882441406248,15.856003051757813,215.4752244140625,16.201603051757814ZM215.6336244140625,17.137603051757814L215.5760244140625,17.756803051757814L216.2816244140625,17.756803051757814L216.3392244140625,17.137603051757814L215.6336244140625,17.137603051757814ZM218.0528244140625,17.137603051757814L217.26082441406248,17.137603051757814L217.2032244140625,17.756803051757814L217.9808244140625,17.756803051757814L218.0528244140625,17.137603051757814ZM220.6304244140625,21.990403051757813L220.7600244140625,20.896003051757813L218.9312244140625,20.896003051757813L219.0320244140625,19.902403051757812L220.8752244140625,19.902403051757812L220.9616244140625,19.19680305175781L220.0688244140625,19.19680305175781Q219.9104244140625,19.45600305175781,219.7376244140625,19.686403051757814L218.9024244140625,19.283203051757813Q219.2336244140625,18.836803051757812,219.4568244140625,18.419203051757812Q219.6800244140625,18.00160305175781,219.8960244140625,17.468803051757813L220.7600244140625,17.699203051757813Q220.6448244140625,17.987203051757813,220.5584244140625,18.217603051757813L221.07682441406251,18.217603051757813L221.16322441406248,17.440003051757813L222.1712244140625,17.440003051757813L222.0848244140625,18.217603051757813L223.3232244140625,18.217603051757813L223.2080244140625,19.19680305175781L221.9696244140625,19.19680305175781L221.8832244140625,19.902403051757812L223.2800244140625,19.902403051757812L223.1648244140625,20.896003051757813L221.7680244140625,20.896003051757813L221.6384244140625,21.990403051757813L220.6304244140625,21.990403051757813ZM215.41762441406252,19.182403051757813L216.1520244140625,19.182403051757813L216.1952244140625,18.606403051757813L215.50402441406248,18.606403051757813Q215.4608244140625,18.90880305175781,215.41762441406252,19.182403051757813ZM217.0736244140625,19.182403051757813L217.8368244140625,19.182403051757813L217.89442441406248,18.606403051757813L217.1168244140625,18.606403051757813L217.0736244140625,19.182403051757813ZM213.3872244140625,26.87200305175781Q214.3952244140625,26.87200305175781,215.38162441406251,26.836003051757814Q216.36802441406252,26.800003051757812,217.3472244140625,26.728003051757813L217.4624244140625,25.561603051757814L214.3376244140625,25.561603051757814L214.6400244140625,22.71040305175781L217.7648244140625,22.71040305175781L217.8368244140625,22.076803051757814L218.9744244140625,22.076803051757814L218.9024244140625,22.71040305175781L221.14882441406252,22.71040305175781Q221.6960244140625,22.71040305175781,221.8832244140625,22.969603051757815Q222.0704244140625,23.228803051757815,222.02722441406252,23.632003051757813L221.8112244140625,25.561603051757814L221.39362441406251,25.561603051757814Q221.7824244140625,26.080003051757814,222.1640244140625,26.656003051757814Q222.5456244140625,27.232003051757815,222.7760244140625,27.692803051757814L221.79682441406248,28.03840305175781Q221.6960244140625,27.88000305175781,221.5880244140625,27.70000305175781Q221.48002441406248,27.52000305175781,221.3648244140625,27.332803051757814Q219.4640244140625,27.577603051757812,217.5200244140625,27.72160305175781Q215.5760244140625,27.865603051757812,213.5024244140625,27.908803051757815L213.3872244140625,26.87200305175781ZM215.5328244140625,24.55360305175781L217.57762441406248,24.55360305175781L217.6640244140625,23.71840305175781L215.6192244140625,23.71840305175781L215.5328244140625,24.55360305175781ZM218.7152244140625,24.55360305175781L220.83202441406252,24.55360305175781L220.91842441406249,23.71840305175781L218.8016244140625,23.71840305175781L218.7152244140625,24.55360305175781ZM220.4000244140625,25.90720305175781L221.2928244140625,25.561603051757814L218.6144244140625,25.561603051757814L218.4992244140625,26.641603051757812Q219.0752244140625,26.598403051757813,219.63682441406252,26.540803051757813Q220.19842441406252,26.483203051757812,220.7600244140625,26.411203051757813Q220.5728244140625,26.137603051757814,220.4000244140625,25.90720305175781ZM225.3248244140625,27.98080305175781L224.2880244140625,27.318403051757812Q224.9216244140625,26.094403051757812,225.2312244140625,24.63280305175781Q225.5408244140625,23.171203051757814,225.7064244140625,21.580003051757814Q225.8720244140625,19.988803051757813,226.0448244140625,18.39040305175781L226.2032244140625,16.950403051757814L225.4112244140625,16.950403051757814L225.5552244140625,15.668803051757813L227.0384244140625,15.668803051757813L227.21122441406249,14.012803051757812L228.40642441406249,14.012803051757812L228.2336244140625,15.668803051757813L229.7024244140625,15.668803051757813L229.5728244140625,16.950403051757814L227.3552244140625,16.950403051757814L227.21122441406249,18.39040305175781Q227.1968244140625,18.54880305175781,227.1824244140625,18.70000305175781Q227.1680244140625,18.851203051757814,227.13922441406248,19.009603051757814L228.1328244140625,19.009603051757814Q228.5792244140625,19.009603051757814,228.8384244140625,19.29760305175781Q229.0976244140625,19.58560305175781,229.0256244140625,20.104003051757815L228.3920244140625,26.06560305175781Q228.3056244140625,26.900803051757812,227.9960244140625,27.433603051757814Q227.68642441406251,27.966403051757812,227.0816244140625,27.966403051757812Q226.6064244140625,27.966403051757812,226.2752244140625,27.671203051757814Q225.94402441406248,27.376003051757813,225.8000244140625,26.900803051757812Q225.5840244140625,27.491203051757815,225.3248244140625,27.98080305175781ZM229.3424244140625,17.598403051757813Q229.9328244140625,16.835203051757812,230.39362441406251,15.935203051757814Q230.85442441406252,15.035203051757811,231.1568244140625,14.012803051757812L232.30882441406249,14.272003051757812Q232.1216244140625,14.905603051757812,231.8768244140625,15.481603051757812L235.3328244140625,15.481603051757812L235.18882441406248,16.77760305175781L231.2720244140625,16.77760305175781Q230.8400244140625,17.569603051757813,230.3072244140625,18.26080305175781L229.3424244140625,17.598403051757813ZM234.7856244140625,26.915203051757814L234.0800244140625,28.009603051757814Q233.2304244140625,27.332803051757814,232.6904244140625,26.53360305175781Q232.1504244140625,25.734403051757813,231.8624244140625,24.769603051757812Q231.4736244140625,25.676803051757812,230.8328244140625,26.512003051757812Q230.1920244140625,27.347203051757813,229.19842441406252,28.03840305175781L228.4640244140625,27.059203051757812Q229.51522441406252,26.310403051757813,230.1416244140625,25.367203051757812Q230.7680244140625,24.424003051757815,231.09922441406252,23.372803051757813L229.0976244140625,23.372803051757813L229.2416244140625,22.076803051757814L231.41602441406252,22.076803051757814Q231.4880244140625,21.673603051757812,231.5312244140625,21.22720305175781L231.66082441406252,20.089603051757813L230.96962441406248,20.089603051757813Q230.6240244140625,20.665603051757813,230.2208244140625,21.16960305175781L229.3568244140625,20.536003051757813Q229.83202441406252,19.902403051757812,230.2496244140625,19.204003051757812Q230.6672244140625,18.505603051757813,230.9840244140625,17.71360305175781L231.97762441406252,18.04480305175781Q231.8048244140625,18.491203051757815,231.6176244140625,18.894403051757813L234.69922441406248,18.894403051757813L234.5696244140625,20.089603051757813L232.85602441406252,20.089603051757813L232.7264244140625,21.241603051757814Q232.6832244140625,21.68800305175781,232.61122441406252,22.076803051757814L234.69922441406248,22.076803051757814L234.55522441406248,23.372803051757813L232.6400244140625,23.372803051757813Q232.8416244140625,24.467203051757814,233.3744244140625,25.33120305175781Q233.9072244140625,26.195203051757815,234.7856244140625,26.915203051757814ZM226.6208244140625,26.20960305175781Q226.6640244140625,26.440003051757813,226.7288244140625,26.656003051757814Q226.7936244140625,26.87200305175781,226.9376244140625,26.87200305175781Q227.0096244140625,26.87200305175781,227.08882441406251,26.74240305175781Q227.1680244140625,26.612803051757812,227.21122441406249,26.16640305175781L227.8592244140625,20.190403051757812L227.0240244140625,20.190403051757812Q226.8656244140625,21.702403051757813,226.6424244140625,23.30080305175781Q226.4192244140625,24.899203051757812,225.9872244140625,26.296003051757815L226.6208244140625,26.20960305175781ZM245.7440244140625,26.440003051757813L245.6144244140625,27.707203051757812L236.1536244140625,27.707203051757812L236.2832244140625,26.440003051757813L239.85442441406252,26.440003051757813L241.16482441406248,14.012803051757812L242.5184244140625,14.012803051757812L242.0144244140625,18.750403051757814L245.8448244140625,18.750403051757814L245.70082441406248,20.089603051757813L241.8848244140625,20.089603051757813L241.2080244140625,26.440003051757813L245.7440244140625,26.440003051757813ZM247.9904244140625,27.952003051757814L249.41602441406252,14.473603051757813L257.0912244140625,14.473603051757813Q257.6240244140625,14.473603051757813,257.9192244140625,14.754403051757812Q258.2144244140625,15.035203051757811,258.1568244140625,15.553603051757813L257.0912244140625,25.64800305175781Q257.0048244140625,26.540803051757813,256.6952244140625,27.059203051757812Q256.3856244140625,27.577603051757812,255.9392244140625,27.786403051757812Q255.4928244140625,27.995203051757812,254.9888244140625,27.995203051757812Q254.2832244140625,27.995203051757812,253.7576244140625,27.512803051757814Q253.2320244140625,27.030403051757812,253.0736244140625,26.152003051757813L254.0816244140625,25.892803051757813Q254.2832244140625,26.828803051757813,254.9600244140625,26.828803051757813Q255.3632244140625,26.828803051757813,255.5864244140625,26.490403051757813Q255.8096244140625,26.152003051757813,255.9104244140625,25.216003051757813L255.9104244140625,25.158403051757812L255.0608244140625,25.446403051757812Q254.9600244140625,24.81280305175781,254.8520244140625,24.200803051757813Q254.7440244140625,23.588803051757814,254.6144244140625,22.998403051757812Q254.0240244140625,24.467203051757814,253.26082441406248,25.763203051757813L252.29602441406252,25.27360305175781Q252.7424244140625,24.582403051757815,253.1168244140625,23.804803051757812L252.31042441406248,24.208003051757814Q252.1376244140625,23.286403051757812,251.9216244140625,22.393603051757815Q251.5760244140625,23.286403051757812,251.18722441406248,24.100003051757813Q250.79842441406248,24.91360305175781,250.3520244140625,25.662403051757813L249.5168244140625,25.158403051757812L249.2144244140625,27.952003051757814L247.9904244140625,27.952003051757814ZM256.3712244140625,16.561603051757814Q255.9104244140625,19.19680305175781,255.2336244140625,21.284803051757812Q255.4352244140625,22.120003051757813,255.6224244140625,22.998403051757812Q255.8096244140625,23.87680305175781,255.95362441406252,24.784003051757814L256.9184244140625,15.640003051757812L250.5104244140625,15.640003051757812L249.5456244140625,24.784003051757814Q250.1072244140625,23.833603051757812,250.5824244140625,22.789603051757812Q251.0576244140625,21.74560305175781,251.4464244140625,20.536003051757813Q251.2160244140625,19.729603051757813,250.9640244140625,18.973603051757813Q250.7120244140625,18.217603051757813,250.4528244140625,17.512003051757812L251.3312244140625,16.950403051757814Q251.6624244140625,17.756803051757814,251.9648244140625,18.707203051757812Q252.2528244140625,17.555203051757815,252.4832244140625,16.244803051757813L253.49122441406251,16.475203051757813Q253.3904244140625,17.094403051757812,253.26082441406248,17.68480305175781L254.0096244140625,17.26720305175781Q254.3696244140625,18.217603051757813,254.7152244140625,19.369603051757814Q254.9024244140625,18.64960305175781,255.0608244140625,17.900803051757812Q255.2192244140625,17.152003051757813,255.3632244140625,16.345603051757813L256.3712244140625,16.561603051757814ZM252.5264244140625,20.622403051757814Q252.7136244140625,21.32800305175781,252.8864244140625,22.076803051757814Q253.0592244140625,22.825603051757813,253.2176244140625,23.603203051757813Q253.7648244140625,22.480003051757812,254.19682441406252,21.16960305175781Q253.9664244140625,20.29120305175781,253.7216244140625,19.47760305175781Q253.4768244140625,18.664003051757813,253.2176244140625,17.900803051757812Q252.9152244140625,19.340803051757813,252.5264244140625,20.622403051757814Z" fill="#005EAC" fill-opacity="1"/></g><g><g><path d="M89.83782958984375,16.625719130859373L91.45930958984376,21.971879130859374L94.43699958984375,21.971879130859374L91.55588958984374,12.374359130859375L89.83782958984375,16.625719130859373Z" fill-rule="evenodd" fill="#27A639" fill-opacity="1"/></g><g><path d="M94.43692890625,7.007540869140625L94.43692890625,5.534660869140625L93.71322890625,5.534660869140625L93.71322890625,4.063140869140625L90.73413890625,4.063140869140625L90.73413890625,5.534660869140625L87.84622890625,5.534660869140625L87.84622890625,4.063140869140625L84.86852890625,4.063140869140625L84.86852890625,5.534660869140625L83.65514390625,5.534660869140625L83.65514390625,7.007540869140625L84.86852890625,7.007540869140625L87.55647890624999,7.007540869140625L87.55647890624999,10.521780869140624L83.65514390625,10.521780869140624L83.65514390625,11.994660869140624L87.55647890624999,11.994660869140624L83.49462890625,21.971640869140625L86.47232890625,21.971640869140625L90.53553890625,11.994660869140624L94.43692890625,11.994660869140624L94.43692890625,10.521780869140624L90.53553890625,10.521780869140624L90.53553890625,7.007540869140625L94.43692890625,7.007540869140625Z" fill-rule="evenodd" fill="#27A639" fill-opacity="1"/></g><g><path d="M119.88396513671876,4.1905688818359375L119.88396513671876,21.971228881835938L117.37966513671876,21.971228881835938C117.07496513671875,21.971228881835938,116.77846513671875,21.86102888183594,116.54576513671876,21.662528881835936L112.29216513671875,17.997328881835937L111.17266513671875,21.971228881835938L108.19496513671875,21.971228881835938L109.89526513671875,15.934128881835937L108.52546513671875,14.755028881835937L108.94036513671875,13.284888881835938L110.30886513671875,14.466728881835937L112.54106513671874,6.540648881835938L115.51876513671874,6.540648881835938L112.70566513671875,16.532528881835937L116.90626513671876,20.155628881835938L116.90626513671876,5.534248881835937L100.97582513671875,5.534248881835937L100.97582513671875,7.850328881835937L105.35598513671874,11.637928881835936L106.79110513671876,6.540648881835938L109.76876513671876,6.540648881835938L105.42400513671875,21.971228881835938L102.44630513671875,21.971228881835938L104.94517513671875,13.098568881835938L100.97582513671875,9.665928881835939L100.97582513671875,21.971228881835938L97.99676513671875,21.971228881835938L97.99676513671875,5.342488881835937C97.99676513671875,4.635288881835938,98.56945113671875,4.0627288818359375,99.27680513671875,4.0627288818359375L100.97582513671875,4.0627288818359375L116.90626513671876,4.0627288818359375L119.75476513671875,4.0627288818359375C119.82546513671875,4.0627288818359375,119.88396513671876,4.119848881835938,119.88396513671876,4.1905688818359375L119.88396513671876,4.1905688818359375Z" fill-rule="evenodd" fill="#27A639" fill-opacity="1"/></g><g mask="url(#master_svg0_5_42)"><g><path d="M73.57181759521484,4.063684940338135L82.75519759521484,4.063684940338135C82.82459759521484,4.063684940338135,82.88169759521485,4.120804940338135,82.88169759521485,4.190164940338135L82.88169759521485,21.970784940338135L79.90401759521484,21.970784940338135L79.90401759521484,16.102384940338133L76.54951759521484,16.102384940338133L76.54951759521484,19.899484940338134L79.25107759521484,19.355484940338137L79.25107759521484,20.827084940338136L75.01509759521484,21.681084940338135C74.26829759521485,21.830684940338134,73.57181759521484,21.260884940338133,73.57181759521484,20.499284940338136L73.57181759521484,5.535204940338135L72.55159759521484,5.535204940338135L72.55159759521484,4.063684940338135L73.57181759521484,4.063684940338135ZM76.54951759521484,9.786544940338135L79.90401759521484,9.786544940338135L79.90401759521484,5.535184940338135L76.54951759521484,5.535184940338135L76.54951759521484,9.786544940338135ZM76.54951759521484,14.630884940338134L79.90401759521484,14.630884940338134L79.90401759521484,11.259424940338135L76.54951759521484,11.259424940338135L76.54951759521484,14.630884940338134Z" fill-rule="evenodd" fill="#27A639" fill-opacity="1"/></g><g><path d="M50.084849063720704,14.225584940338134L47.1085090637207,14.225584940338134L47.1085090637207,6.601444940338135L53.652909063720706,6.601444940338135L54.0242690637207,5.535204940338135L47.1085090637207,5.535204940338135L47.1085090637207,4.063684940338135L57.333909063720704,4.063684940338135C57.422309063720704,4.063684940338135,57.48490906372071,4.149364940338135,57.454909063720706,4.233684940338135L57.004689063720704,5.535204940338135L57.0019690637207,5.535204940338135L56.6319690637207,6.601444940338135L57.3801090637207,6.601444940338135C57.4522090637207,6.601444940338135,57.5094090637207,6.658564940338135,57.5094090637207,6.727924940338134L57.5094090637207,14.225584940338134L54.531669063720706,14.225584940338134L54.531669063720706,13.030164940338135L53.202649063720706,13.030164940338135L53.202649063720706,14.225584940338134L51.4138590637207,14.225584940338134L51.4138590637207,13.030164940338135L50.084849063720704,13.030164940338135L50.084849063720704,14.225584940338134ZM51.4138590637207,9.268404940338135L50.084849063720704,9.268404940338135L50.084849063720704,8.072964940338135L51.4138590637207,8.072964940338135L51.4138590637207,9.268404940338135ZM54.5316590637207,9.268404940338135L53.2026390637207,9.268404940338135L53.2026390637207,8.072964940338135L54.5316590637207,8.072964940338135L54.5316590637207,9.268404940338135ZM51.4138590637207,11.558614940338135L50.084849063720704,11.558614940338135L50.084849063720704,10.741254940338134L51.4138590637207,10.741254940338134L51.4138590637207,11.558614940338135ZM54.5316590637207,11.558614940338135L53.2026390637207,11.558614940338135L53.2026390637207,10.741254940338134L54.5316590637207,10.741254940338134L54.5316590637207,11.558614940338135Z" fill-rule="evenodd" fill="#27A639" fill-opacity="1"/></g><g><path d="M65.2476248046875,7.6914825439453125L62.2699248046875,7.6914825439453125L62.2699248046875,8.235482543945313L61.5707348046875,8.235482543945313L61.5707348046875,7.6914825439453125L58.5916748046875,7.6914825439453125L58.5916748046875,8.235482543945313L58.5916748046875,9.707002543945313L58.5916748046875,10.797722543945312L61.5707348046875,10.797722543945312L61.5707348046875,9.707002543945313L62.2699248046875,9.707002543945313L62.2699248046875,11.313162543945312L58.5916748046875,11.313162543945312L58.5916748046875,12.784682543945312L62.2699248046875,12.784682543945312L62.2699248046875,14.226282543945313L65.2476248046875,14.226282543945313L65.2476248046875,12.784682543945312L68.9938748046875,12.784682543945312L68.9938748046875,11.313162543945312L65.2476248046875,11.313162543945312L65.2476248046875,9.707002543945313L68.9938748046875,9.707002543945313L68.9938748046875,8.235482543945313L65.2476248046875,8.235482543945313L65.2476248046875,7.6914825439453125Z" fill-rule="evenodd" fill="#27A639" fill-opacity="1"/></g><g><path d="M68.9930090637207,15.302720552978515L68.9930090637207,19.365040552978517L58.9975090637207,19.365040552978517L58.9975090637207,20.499280552978515L66.0167090637207,20.499280552978515L66.0167090637207,19.972960552978517L68.9930090637207,19.972960552978517L68.9930090637207,21.970800552978517L47.1085090637207,21.970800552978517L47.1085090637207,20.499280552978515L56.01982906372071,20.499280552978515L56.01982906372071,19.365040552978517L47.1085090637207,19.365040552978517L47.1085090637207,16.582480552978517C47.1085090637207,15.875280552978516,47.6798350637207,15.302720552978515,48.387189063720704,15.302720552978515L56.01982906372071,15.302720552978515L56.01982906372071,14.798160552978516L58.9975090637207,14.798160552978516L58.9975090637207,15.302720552978515L68.9930090637207,15.302720552978515ZM50.084829063720704,17.893510552978515L56.0198190637207,17.893510552978515L56.0198190637207,16.774230552978516L50.084829063720704,16.774230552978516L50.084829063720704,17.893510552978515ZM58.9975090637207,17.893510552978515L66.0167090637207,17.893510552978515L66.0167090637207,16.774230552978516L58.9975090637207,16.774230552978516L58.9975090637207,17.893510552978515Z" fill-rule="evenodd" fill="#27A639" fill-opacity="1"/></g><g><path d="M61.57041240234375,6.975574223632813L62.07100240234375,5.533974223632812L65.50303240234375,5.533974223632812L65.00516240234376,6.961974223632812L67.98422240234375,6.961974223632812L68.48073240234375,5.533974223632812L68.99221240234375,4.0624542236328125L66.01587240234375,4.0624542236328125L58.59271240234375,4.0624542236328125L58.59271240234375,5.533974223632812L59.09330240234375,5.533974223632812L58.59271240234375,6.975574223632813L61.57041240234375,6.975574223632813Z" fill-rule="evenodd" fill="#27A639" fill-opacity="1"/></g><g><path d="M47.07452392578125,36.898162934570315L48.84971392578125,36.898162934570315L48.84971392578125,29.726882934570312L47.07452392578125,29.726882934570312L47.07452392578125,36.898162934570315Z" fill-rule="evenodd" fill="#27A639" fill-opacity="1"/></g><g><path d="M47.07452392578125,28.92992052734375L48.84971392578125,28.92992052734375L48.84971392578125,24.32904052734375L47.07452392578125,24.32904052734375L47.07452392578125,28.92992052734375Z" fill-rule="evenodd" fill="#27A639" fill-opacity="1"/></g><g><path d="M56.19940185546875,36.89814052734375L57.97459185546875,36.89814052734375L57.97459185546875,24.32904052734375L56.19940185546875,24.32904052734375L56.19940185546875,36.89814052734375Z" fill-rule="evenodd" fill="#27A639" fill-opacity="1"/></g><g><path d="M92.29901123046875,36.89815221679687L94.07420123046874,36.89815221679687L94.07420123046874,27.435272216796875L92.29901123046875,27.435272216796875L92.29901123046875,36.89815221679687Z" fill-rule="evenodd" fill="#27A639" fill-opacity="1"/></g><g><path d="M84.62656228515625,27.435409545898438L84.62656228515625,29.210209545898437L83.90968228515625,29.210209545898437C82.27460228515625,29.210209545898437,80.95103228515624,30.533489545898437,80.95103228515624,32.16684954589844L80.95103228515624,36.898289545898436L79.17584228515625,36.898289545898436L79.17584228515625,31.87172954589844C79.17584228515625,29.42100954589844,81.16324228515624,27.435409545898438,83.61314228515624,27.435409545898438L84.62656228515625,27.435409545898438Z" fill-rule="evenodd" fill="#27A639" fill-opacity="1"/></g><g><path d="M47.2269287109375,31.500309643554687L57.9746287109375,31.500309643554687L57.9746287109375,29.725509643554688L47.2269287109375,29.725509643554688L47.2269287109375,31.500309643554687Z" fill-rule="evenodd" fill="#27A639" fill-opacity="1"/></g><g><path d="M59.972900390625,33.05344074707031L67.533450390625,33.05344074707031L67.533450390625,31.278640747070312L59.972900390625,31.278640747070312L59.972900390625,33.05344074707031Z" fill-rule="evenodd" fill="#27A639" fill-opacity="1"/></g><g><path d="M108.49149138671875,35.57148194824219C108.49149138671875,36.28412194824219,107.91200138671876,36.86348194824219,107.19920138671876,36.86348194824219C106.48368838671875,36.86348194824219,105.90692138671875,36.28412194824219,105.90692138671875,35.57148194824219C105.90692138671875,34.85748194824219,106.48368838671875,34.27812194824219,107.19920138671876,34.27812194824219C107.91200138671876,34.27812194824219,108.49149138671875,34.85748194824219,108.49149138671875,35.57148194824219L108.49149138671875,35.57148194824219Z" fill-rule="evenodd" fill="#27A639" fill-opacity="1"/></g><g><path d="M133.63449580078125,27.435409545898438C131.67702580078125,27.435409545898438,130.08819580078125,29.022529545898436,130.08819580078125,30.980929545898437C130.08819580078125,32.29332954589844,130.80371380078125,33.43572954589844,131.86338580078126,34.04908954589844L131.86338580078126,30.980929545898437C131.86338580078126,30.003089545898437,132.65644580078126,29.210209545898437,133.63449580078125,29.210209545898437C134.61391580078126,29.210209545898437,135.40696580078125,30.003089545898437,135.40696580078125,30.980929545898437L135.40696580078125,34.04908954589844C136.46664580078124,33.43572954589844,137.18079580078125,32.29332954589844,137.18079580078125,30.980929545898437C137.18079580078125,29.022529545898436,135.59332580078126,27.435409545898438,133.63449580078125,27.435409545898438L133.63449580078125,27.435409545898438Z" fill-rule="evenodd" fill="#27A639" fill-opacity="1"/></g><g><path d="M138.9535265625,27.435409545898438C136.9960565625,27.435409545898438,135.4072265625,29.022529545898436,135.4072265625,30.980929545898437C135.4072265625,32.29332954589844,136.1227445625,33.43572954589844,137.1810565625,34.04908954589844L137.1810565625,30.980929545898437C137.1810565625,30.003089545898437,137.9754765625,29.210209545898437,138.9535265625,29.210209545898437C139.9329465625,29.210209545898437,140.7259965625,30.003089545898437,140.7259965625,30.980929545898437L140.7259965625,34.04908954589844C141.7856765625,33.43572954589844,142.4998265625,32.29332954589844,142.4998265625,30.980929545898437C142.4998265625,29.022529545898436,140.9123565625,27.435409545898438,138.9535265625,27.435409545898438L138.9535265625,27.435409545898438Z" fill-rule="evenodd" fill="#27A639" fill-opacity="1"/></g><g><path d="M84.60858154296875,32.166311673583984C84.60858154296875,29.553751673583985,86.72657154296876,27.434871673583984,89.34106154296875,27.434871673583984C91.95420154296875,27.434871673583984,94.07354154296875,29.553751673583985,94.07354154296875,32.166311673583984C94.07354154296875,34.780231673583984,91.95420154296875,36.89775167358398,89.34106154296875,36.89775167358398C86.72657154296876,36.89775167358398,84.60858154296875,34.780231673583984,84.60858154296875,32.166311673583984ZM86.40155154296875,32.166311673583984C86.40155154296875,33.790151673583985,87.71832154296875,35.105271673583985,89.34116154296875,35.105271673583985C90.96399154296876,35.105271673583985,92.28076154296875,33.790151673583985,92.28076154296875,32.166311673583984C92.28076154296875,30.543831673583984,90.96399154296876,29.227351673583986,89.34116154296875,29.227351673583986C87.71832154296875,29.227351673583986,86.40155154296875,30.543831673583984,86.40155154296875,32.166311673583984Z" fill-rule="evenodd" fill="#27A639" fill-opacity="1"/></g><g><path d="M95.25634765625,36.89814052734375L97.03153765625,36.89814052734375L97.03153765625,24.32904052734375L95.25634765625,24.32904052734375L95.25634765625,36.89814052734375Z" fill-rule="evenodd" fill="#27A639" fill-opacity="1"/></g><g><path d="M130.0867919921875,36.89816357910156L131.8619819921875,36.89816357910156L131.8619819921875,31.129043579101562L130.0867919921875,31.129043579101562L130.0867919921875,36.89816357910156Z" fill-rule="evenodd" fill="#27A639" fill-opacity="1"/></g><g><path d="M135.40557861328125,36.89816357910156L137.18076861328126,36.89816357910156L137.18076861328126,31.129043579101562L135.40557861328125,31.129043579101562L135.40557861328125,36.89816357910156Z" fill-rule="evenodd" fill="#27A639" fill-opacity="1"/></g><g><path d="M140.7257080078125,36.89816168457031L142.5008980078125,36.89816168457031L142.5008980078125,30.613601684570312L140.7257080078125,30.613601684570312L140.7257080078125,36.89816168457031Z" fill-rule="evenodd" fill="#27A639" fill-opacity="1"/></g><g><path d="M95.2571792602539,32.166311673583984C95.2571792602539,29.553751673583985,97.37516926025391,27.434871673583984,99.9896592602539,27.434871673583984C102.60415926025391,27.434871673583984,104.72213926025391,29.553751673583985,104.72213926025391,32.166311673583984C104.72213926025391,34.780231673583984,102.60415926025391,36.89775167358398,99.9896592602539,36.89775167358398C97.37516926025391,36.89775167358398,95.2571792602539,34.780231673583984,95.2571792602539,32.166311673583984ZM97.05002926025391,32.166311673583984C97.05002926025391,33.790151673583985,98.36679926025391,35.105271673583985,99.9896292602539,35.105271673583985C101.6124692602539,35.105271673583985,102.92923926025391,33.790151673583985,102.92923926025391,32.166311673583984C102.92923926025391,30.543831673583984,101.6124692602539,29.227351673583986,99.9896292602539,29.227351673583986C98.36679926025391,29.227351673583986,97.05002926025391,30.543831673583984,97.05002926025391,32.166311673583984Z" fill-rule="evenodd" fill="#27A639" fill-opacity="1"/></g><g><path d="M65.49995078124999,34.30981281738281C64.97351078125,34.80213281738281,64.26887078125,35.10541281738281,63.49078078125,35.10541281738281C61.86794078125,35.10541281738281,60.55117078125,33.79029281738281,60.55117078125,32.16645281738281C60.55117078125,30.542612817382814,61.86794078125,29.227492817382814,63.49078078125,29.227492817382814C65.11498078125,29.227492817382814,66.43175078125,30.542612817382814,66.43175078125,32.16645281738281C66.43175078125,32.47517281738281,66.38142078125,32.77437281738281,66.29436078125,33.053172817382816L68.13757078125,33.053172817382816C68.19198078125,32.766212817382815,68.22463078125,32.46973281738281,68.22463078125,32.16645281738281C68.22463078125,29.553892817382813,66.10528078125,27.435012817382812,63.49078078125,27.435012817382812C60.87765078125,27.435012817382812,58.75830078125,29.553892817382813,58.75830078125,32.16645281738281C58.75830078125,34.78037281738281,60.87765078125,36.89789281738281,63.49078078125,36.89789281738281C65.33263078125,36.89789281738281,66.92554078124999,35.845252817382814,67.70771078125,34.30981281738281L65.49995078124999,34.30981281738281Z" fill-rule="evenodd" fill="#27A639" fill-opacity="1"/></g><g><path d="M76.54429974609376,33.05331014648438C76.16749974609375,34.243310146484376,75.05476974609375,35.105550146484376,73.74071974609375,35.105550146484376C72.11787974609375,35.105550146484376,70.80110974609374,33.790430146484375,70.80110974609374,32.166590146484374C70.80110974609374,30.542750146484376,72.11787974609375,29.227630146484376,73.74071974609375,29.227630146484376C75.05476974609375,29.227630146484376,76.16749974609375,30.089870146484376,76.54429974609376,31.278510146484376L78.38750974609376,31.278510146484376C77.97260974609375,29.090270146484375,76.05186974609376,27.435150146484375,73.74071974609375,27.435150146484375C71.12758974609375,27.435150146484375,69.00823974609375,29.554030146484376,69.00823974609375,32.166590146484374C69.00823974609375,34.780510146484374,71.12758974609375,36.89803014648437,73.74071974609375,36.89803014648437C76.05186974609376,36.89803014648437,77.97260974609375,35.24155014648437,78.38750974609376,33.05331014648438L76.54429974609376,33.05331014648438Z" fill-rule="evenodd" fill="#27A639" fill-opacity="1"/></g><g><path d="M119.83819580078125,32.166311673583984C119.83819580078125,29.553751673583985,121.95754580078125,27.434871673583984,124.57067580078125,27.434871673583984C127.18517580078125,27.434871673583984,129.30315580078124,29.553751673583985,129.30315580078124,32.166311673583984C129.30315580078124,34.780231673583984,127.18517580078125,36.89775167358398,124.57067580078125,36.89775167358398C121.95754580078125,36.89775167358398,119.83819580078125,34.780231673583984,119.83819580078125,32.166311673583984ZM121.63104580078125,32.166311673583984C121.63104580078125,33.790151673583985,122.94781580078126,35.105271673583985,124.57064580078125,35.105271673583985C126.19484580078125,35.105271673583985,127.51025580078125,33.790151673583985,127.51025580078125,32.166311673583984C127.51025580078125,30.543831673583984,126.19484580078125,29.227351673583986,124.57064580078125,29.227351673583986C122.94781580078126,29.227351673583986,121.63104580078125,30.543831673583984,121.63104580078125,32.166311673583984Z" fill-rule="evenodd" fill="#27A639" fill-opacity="1"/></g><g><path d="M117.20993193359375,33.05331014648438C116.83449193359375,34.243310146484376,115.72176193359375,35.105550146484376,114.40635193359375,35.105550146484376C112.78351193359374,35.105550146484376,111.46674193359375,33.790430146484375,111.46674193359375,32.166590146484374C111.46674193359375,30.542750146484376,112.78351193359374,29.227630146484376,114.40635193359375,29.227630146484376C115.72176193359375,29.227630146484376,116.83449193359375,30.089870146484376,117.20993193359375,31.278510146484376L119.05450193359376,31.278510146484376C118.63960193359375,29.090270146484375,116.71886193359376,27.435150146484375,114.40635193359375,27.435150146484375C111.79458193359375,27.435150146484375,109.67523193359375,29.554030146484376,109.67523193359375,32.166590146484374C109.67523193359375,34.780510146484374,111.79458193359375,36.89803014648437,114.40635193359375,36.89803014648437C116.71886193359376,36.89803014648437,118.63960193359375,35.24155014648437,119.05450193359376,33.05331014648438L117.20993193359375,33.05331014648438Z" fill-rule="evenodd" fill="#27A639" fill-opacity="1"/></g><g><path d="M25.8054197265625,34.85947499999437L24.2886197265625,33.34577499999437L36.8714197265625,20.769874999994364C38.3800197265625,19.257474999994365,39.2288197265625,17.209374999994367,39.2288197265625,15.075474999994366L39.2288197265625,13.761774999994365C39.2288197265625,11.128774999994366,38.1854197265625,8.601914999994365,36.3218197265625,6.740074999994365L31.1133197265625,1.5326349999943656C29.0646197265625,-0.5114450000056345,25.7578197265625,-0.5114450000056345,23.7132197265625,1.5326349999943656L23.3555197265625,1.8862349999943655C22.9052197265625,2.3363949999943654,22.9052197265625,3.0667149999943657,23.3555197265625,3.5127949999943655L33.8774197265625,14.032374999994365L32.4110197265625,15.495774999994365L32.3674197265625,15.536574999994366L22.4590197265625,5.626234999994366C22.2373197265625,6.659834999994366,22.1230197265625,7.732874999994365,22.1230197265625,8.830394999994365C22.1230197265625,12.438474999994366,23.3663197265625,15.745974999994365,25.4503197265625,18.353074999994366L25.4503197265625,18.357174999994367L27.5017197265625,20.403974999994364L19.424219726562498,28.482374999994367L8.782589726562499,17.843074999994364L3.9127197265625,22.707874999994367L20.8879197265625,39.677874999994366C21.6034197265625,40.39737499999436,22.5842197265625,40.799874999994366,23.5990197265625,40.799874999994366L28.0104197265625,40.799874999994366C29.0266197265625,40.799874999994366,30.0060197265625,40.395974999994365,30.7215197265625,39.676574999994365L35.893319726562495,34.508574999994366C38.0290197265625,32.37747499999436,39.2288197265625,29.481974999994364,39.2288197265625,26.469574999994364L39.2288197265625,21.445774999994367L25.8054197265625,34.85947499999437Z" fill-rule="evenodd" fill="#005EAC" fill-opacity="1"/></g><g><path d="M15.1515455078125,3.810730986328125C15.7446455078125,3.217770986328125,15.7446455078125,2.257610986328125,15.1515455078125,1.666010986328125L15.0644455078125,1.577610986328125C13.0172455078125,-0.46918901367187504,9.6953655078125,-0.46918901367187504,7.6481055078125,1.577610986328125L2.7374255078125,6.488570986328125C0.9840025078125,8.240250986328125,-0.0008544921875,10.616210986328126,-0.0008544921875,13.094110986328126L-0.0008544921875,18.795210986328126L15.1515455078125,3.810730986328125Z" fill-rule="evenodd" fill="#27A639" fill-opacity="1"/></g><g><path d="M19.08112587890625,40.800255786132816L14.05882587890625,40.800255786132816C13.39912587890625,40.800255786132816,12.74482587890625,40.74175578613281,12.10272587890625,40.63165578613281C11.82792587890625,40.584055786132815,11.55722587890625,40.52555578613281,11.28652587890625,40.457555786132815C9.30461587890625,39.961155786132814,7.47773587890625,38.93575578613281,6.01268587890625,37.46965578613281L3.27984587890625,34.79045578613281C1.18226587890625,32.73005578613281,0.00152587890625,29.91345578613281,0.00152587890625,26.97455578613281L0.00152587890625,25.86475578613281C0.00152587890625,24.613555786132814,0.24229887890625,23.389555786132814,0.70480087890625,22.253955786132813C1.16594587890625,21.116955786132813,1.84337587890625,20.069755786132813,2.71532587890625,19.176255786132813L16.24892587890625,5.6415557861328125C16.47062587890625,6.673795786132812,16.58362587890625,7.745475786132813,16.58362587890625,8.842995786132812C16.58362587890625,12.446995786132813,15.34162587890625,15.761355786132812,13.26032587890625,18.368455786132813L13.25632587890625,18.368455786132813L4.95165587890625,26.67395578613281L19.08112587890625,40.800255786132816Z" fill-rule="evenodd" fill="#27A639" fill-opacity="1"/></g></g></g></g></svg>