<svg xmlns="http://www.w3.org/2000/svg" xmlns:xlink="http://www.w3.org/1999/xlink" fill="none" version="1.1" width="70" height="70" viewBox="0 0 70 70"><defs><clipPath id="master_svg0_7_070"><rect x="0" y="0" width="70" height="70" rx="0"/></clipPath></defs><g clip-path="url(#master_svg0_7_070)"><g><path d="M12.592423671875,28.17196953125L48.057013671875,63.63646953125L12.729243671875,63.63646953125C9.214703671875,63.63646953125,6.365604891875,60.78736953125,6.365604371875,57.27286953125L6.364013671875,34.40036953125L12.592423671875,28.17196953125ZM38.874213671875,6.36376953125C35.385113671875004,9.64000953125,33.407613671875,14.21418953125,33.411013671875,19.00036953125C33.411013671875,23.62356953125,35.219913671875,27.82356953125,38.177413671875,30.94016953125L38.538513671875,31.30926953125L49.783113671875,42.49326953125C50.355813671875,43.06286953125,51.262613671875,43.10576953125,51.887913671875,42.62376953125L52.037413671875,42.49326953125L63.281913671875,31.30446953125C63.402913671875,31.18516953125,63.520613671875,31.06426953125,63.638313671875,30.94016953125L63.638313671875,57.27286953125C63.638313671875,60.78736953125,60.789213671875,63.63646953125,57.274713671875,63.63646953125L54.808813671875,63.63646953125L15.968333671875,24.79606953125L34.400613671875,6.36376953125L38.875813671875,6.36376953125L38.874213671875,6.36376953125ZM27.650413671875,6.36376953125L6.364013671875,27.64856953125L6.364013671875,12.72740953125C6.364013150334,9.21286953125,9.213113671875,6.36376953125,12.727653671875,6.36376953125L27.650413671875,6.36376953125Z" fill="#06C839" fill-opacity="1" style="mix-blend-mode:passthrough"/></g><g><path d="M41.91281890625,29.223468577575684C39.60593890625,26.800668577575685,38.18212890625,23.454868577575684,38.18212890625,19.755968577575686C38.18212890625,12.359848577575683,43.88388890625,6.363768577575684,50.909328906249996,6.363768577575684L50.911028906249996,6.363768577575684C57.93642890625,6.363768577575684,63.63822890625,12.356738577575683,63.63822890625,19.752868577575683C63.63822890625,23.451668577575685,62.21442890625,26.797368577575682,59.90752890625,29.220368577575684L51.73032890625,37.827168577575684C51.28692890625,38.301268577575684,50.53492890625,38.301268577575684,50.09162890625,37.827168577575684L41.91281890625,29.223468577575684ZM50.909128906250004,25.454668577575685Q51.06532890625,25.454668577575685,51.22132890625,25.447068577575685Q51.37732890625,25.439368577575685,51.53282890625,25.424068577575685Q51.68832890625,25.408768577575685,51.84282890625,25.385768577575682Q51.997328906250004,25.362868577575682,52.15052890625,25.332368577575682Q52.303828906250004,25.301968577575682,52.45532890625,25.263968577575685Q52.60682890625,25.226068577575685,52.75632890625,25.180668577575684Q52.90582890625,25.135368577575683,53.05292890625,25.082668577575685Q53.20002890625,25.030068577575683,53.34432890625,24.970268577575684Q53.48862890625,24.910468577575685,53.62992890625,24.843668577575684Q53.77112890625,24.776868577575684,53.90892890625,24.703268577575685Q54.04662890625,24.629668577575682,54.18062890625,24.549368577575684Q54.31462890625,24.468968577575684,54.44452890625,24.382168577575683Q54.57442890625,24.295468577575683,54.69992890625,24.202368577575683Q54.825428906249996,24.109268577575683,54.946128906249996,24.010168577575683Q55.06692890625,23.911068577575683,55.18262890625,23.806168577575683Q55.298428906249995,23.701268577575682,55.40882890625,23.590868577575684Q55.519328906249996,23.480368577575682,55.624228906249996,23.364568577575685Q55.72912890625,23.248868577575685,55.828228906250004,23.128068577575682Q55.92732890625,23.007368577575683,56.020428906250004,22.881868577575684Q56.11352890625,22.756368577575685,56.200228906250004,22.626468577575682Q56.28702890625,22.496568577575683,56.367328906249995,22.362568577575683Q56.44772890625,22.228668577575682,56.521328906250005,22.090868577575684Q56.594928906250004,21.953068577575685,56.661728906250005,21.811868577575684Q56.72852890625,21.670668577575682,56.78832890625,21.526268577575685Q56.84812890625,21.381968577575684,56.900728906249995,21.234868577575682Q56.95342890625,21.087768577575684,56.99872890625,20.938268577575684Q57.04402890625,20.788868577575684,57.08202890625,20.637268577575682Q57.12002890625,20.485768577575683,57.15042890625,20.332568577575685Q57.18092890625,20.179268577575684,57.203828906249996,20.024768577575685Q57.22682890625,19.870268577575686,57.24212890625,19.714768577575683Q57.25742890625,19.559368577575682,57.26512890625,19.403268577575684Q57.272728906249995,19.24726857757568,57.272728906249995,19.091068577575683Q57.272728906249995,18.934868577575685,57.26512890625,18.778768577575683Q57.25742890625,18.622768577575684,57.24212890625,18.467268577575684Q57.22682890625,18.311868577575684,57.203828906249996,18.157268577575685Q57.18092890625,18.002768577575683,57.15042890625,17.84956857757568Q57.12002890625,17.696368577575683,57.08202890625,17.54476857757568Q57.04402890625,17.393268577575682,56.99872890625,17.243768577575686Q56.95342890625,17.094268577575683,56.900728906249995,16.94716857757568Q56.84812890625,16.800168577575683,56.78832890625,16.655768577575685Q56.72852890625,16.511468577575684,56.661728906250005,16.370268577575686Q56.594928906250004,16.229028577575683,56.521328906250005,16.091258577575683Q56.44772890625,15.953478577575684,56.367328906249995,15.819488577575683Q56.28702890625,15.685498577575684,56.200228906250004,15.555608577575683Q56.11352890625,15.425718577575683,56.020428906250004,15.300238577575684Q55.92732890625,15.174758577575684,55.828228906250004,15.054008577575683Q55.72912890625,14.933248577575684,55.624228906249996,14.817498577575684Q55.519328906249996,14.701748577575684,55.40882890625,14.591278577575684Q55.298428906249995,14.480818577575684,55.18262890625,14.375908577575684Q55.06692890625,14.270998577575684,54.946128906249996,14.171898577575684Q54.825428906249996,14.072788577575682,54.69992890625,13.979728577575685Q54.57442890625,13.886668577575684,54.44452890625,13.799878577575683Q54.31462890625,13.713088577575682,54.18062890625,13.632778577575683Q54.04662890625,13.552468577575684,53.90892890625,13.478828577575683Q53.77112890625,13.405188577575682,53.62992890625,13.338388577575683Q53.48862890625,13.271598577575684,53.34432890625,13.211818577575684Q53.20002890625,13.152038577575684,53.05292890625,13.099408577575684Q52.90582890625,13.046778577575683,52.75632890625,13.001428577575684Q52.60682890625,12.956088577575684,52.45532890625,12.918128577575683Q52.303828906250004,12.880168577575684,52.15052890625,12.849688577575684Q51.997328906250004,12.819218577575683,51.84282890625,12.796288577575684Q51.68832890625,12.773368577575685,51.53282890625,12.758058577575683Q51.37732890625,12.742748577575684,51.22132890625,12.735078577575685Q51.06532890625,12.727418577575683,50.909128906250004,12.727418577575683Q50.75282890625,12.727418577575683,50.596828906249996,12.735078577575685Q50.44082890625,12.742748577575684,50.28532890625,12.758058577575683Q50.12982890625,12.773368577575685,49.97532890625,12.796288577575684Q49.82082890625,12.819218577575683,49.66762890625,12.849688577575684Q49.51432890625,12.880168577575684,49.36282890625,12.918128577575683Q49.21132890625,12.956088577575684,49.06182890625,13.001428577575684Q48.912328906249996,13.046778577575683,48.76522890625,13.099408577575684Q48.61812890625,13.152038577575684,48.47382890625,13.211818577575684Q48.32952890625,13.271598577575684,48.18822890625,13.338388577575683Q48.04703890625,13.405188577575682,47.90926890625,13.478828577575683Q47.77148890625,13.552468577575684,47.63749890625,13.632778577575683Q47.50349890625,13.713088577575682,47.37360890625,13.799878577575683Q47.24371890625,13.886668577575684,47.11824890625,13.979728577575685Q46.99276890625,14.072788577575682,46.87200890625,14.171898577575684Q46.75124890625,14.270998577575684,46.63549890625,14.375908577575684Q46.51974890625,14.480818577575684,46.40928890625,14.591278577575684Q46.29881890625,14.701748577575684,46.19390890625,14.817498577575684Q46.08899890625,14.933248577575684,45.98989890625,15.054008577575683Q45.89078890625,15.174758577575684,45.79772890625,15.300238577575684Q45.70466890625,15.425718577575683,45.61787890625,15.555608577575683Q45.53108890625,15.685498577575684,45.45077890625,15.819488577575683Q45.37046890625,15.953478577575684,45.29681890625,16.091258577575683Q45.22317890625,16.229028577575683,45.15638890625,16.370268577575686Q45.08959890625,16.511468577575684,45.02981890625,16.655768577575685Q44.97002890625,16.800168577575683,44.91739890625,16.94716857757568Q44.86477890625,17.094268577575683,44.819428906249996,17.243768577575686Q44.77407890625,17.393268577575682,44.73611890625,17.54476857757568Q44.69815890625,17.696368577575683,44.66768890625,17.84956857757568Q44.63720890625,18.002768577575683,44.614288906249996,18.157268577575685Q44.59136890625,18.311868577575684,44.57604890625,18.467268577575684Q44.56073890625,18.622768577575684,44.55307890625,18.778768577575683Q44.54540890625,18.934868577575685,44.54540890625,19.091068577575683Q44.54540890625,19.24726857757568,44.55307890625,19.403268577575684Q44.56073890625,19.559368577575682,44.57604890625,19.714768577575683Q44.59136890625,19.870268577575686,44.614288906249996,20.024768577575685Q44.63720890625,20.179268577575684,44.66768890625,20.332568577575685Q44.69815890625,20.485768577575683,44.73611890625,20.637268577575682Q44.77407890625,20.788868577575684,44.819428906249996,20.938268577575684Q44.86477890625,21.087768577575684,44.91739890625,21.234868577575682Q44.97002890625,21.381968577575684,45.02981890625,21.526268577575685Q45.08959890625,21.670668577575682,45.15638890625,21.811868577575684Q45.22317890625,21.953068577575685,45.29681890625,22.090868577575684Q45.37046890625,22.228668577575682,45.45077890625,22.362568577575683Q45.53108890625,22.496568577575683,45.61787890625,22.626468577575682Q45.70466890625,22.756368577575685,45.79772890625,22.881868577575684Q45.89078890625,23.007368577575683,45.98989890625,23.128068577575682Q46.08899890625,23.248868577575685,46.19390890625,23.364568577575685Q46.29881890625,23.480368577575682,46.40928890625,23.590868577575684Q46.51974890625,23.701268577575682,46.63549890625,23.806168577575683Q46.75124890625,23.911068577575683,46.87200890625,24.010168577575683Q46.99276890625,24.109268577575683,47.11824890625,24.202368577575683Q47.24371890625,24.295468577575683,47.37360890625,24.382168577575683Q47.50349890625,24.468968577575684,47.63749890625,24.549368577575684Q47.77148890625,24.629668577575682,47.90926890625,24.703268577575685Q48.04703890625,24.776868577575684,48.18822890625,24.843668577575684Q48.32952890625,24.910468577575685,48.47382890625,24.970268577575684Q48.61812890625,25.030068577575683,48.76522890625,25.082668577575685Q48.912328906249996,25.135368577575683,49.06182890625,25.180668577575684Q49.21132890625,25.226068577575685,49.36282890625,25.263968577575685Q49.51432890625,25.301968577575682,49.66762890625,25.332368577575682Q49.82082890625,25.362868577575682,49.97532890625,25.385768577575682Q50.12982890625,25.408768577575685,50.28532890625,25.424068577575685Q50.44082890625,25.439368577575685,50.596828906249996,25.447068577575685Q50.75282890625,25.454668577575685,50.909128906250004,25.454668577575685Z" fill-rule="evenodd" fill="#06C839" fill-opacity="0.4000000059604645" style="mix-blend-mode:passthrough"/></g></g></svg>