<svg xmlns="http://www.w3.org/2000/svg" xmlns:xlink="http://www.w3.org/1999/xlink" fill="none" version="1.1" width="70" height="70" viewBox="0 0 70 70"><defs><clipPath id="master_svg0_7_084"><rect x="0" y="0" width="70" height="70" rx="0"/></clipPath></defs><g clip-path="url(#master_svg0_7_084)"><g><path d="M62.512014453125,9.4996573828125C62.512014453125,7.8321273828125,61.190314453125,6.4815673828125,59.561814453125,6.4815673828125L6.447554453125,6.4815673828125C4.8170544531249995,6.4815673828125,3.497314453125,7.8340973828125,3.497314453125,9.4996573828125L3.497314453125,16.2997273828125L62.502214453125,16.2997273828125L62.512014453125,9.4996573828125ZM53.651414453125,34.0184673828125C56.908514453125,34.0184673828125,59.937414453125,34.9654673828125,62.508114453125,36.5778673828125L62.502214453125,24.1747673828125L3.497314453125,24.1747673828125L3.497314453125,48.7447673828125C3.497314453125,50.4122673828125,4.8190244531249995,51.7628673828125,6.447554453125,51.7628673828125L36.984514453125,51.7628673828125C36.964914453125,51.4261673828125,36.933414453125,51.0934673828125,36.933414453125,50.7528673828125C36.933414453125,41.5115673828125,44.417214453125,34.0184673828125,53.651414453125,34.0184673828125Z" fill="#06C839" fill-opacity="1" style="mix-blend-mode:passthrough"/></g><g><path d="M53.6553591796875,63.577279296875Q53.9694591796875,63.577279296875,54.2830591796875,63.561779296875Q54.596759179687496,63.546379296875,54.909259179687496,63.515579296875Q55.221759179687496,63.484679296875,55.532359179687504,63.438479296875Q55.8430591796875,63.392279296875,56.1510591796875,63.330879296875Q56.4590591796875,63.269479296875005,56.7636591796875,63.193079296875Q57.0682591796875,63.116579296875,57.3687591796875,63.025179296874995Q57.6692591796875,62.933879296875,57.9649591796875,62.827879296875Q58.2606591796875,62.721779296875,58.5507591796875,62.601379296874995Q58.8408591796875,62.480879296875,59.1247591796875,62.346379296875Q59.408659179687504,62.211779296875,59.685659179687505,62.063479296875Q59.9625591796875,61.915079296875,60.2319591796875,61.753279296875Q60.5012591796875,61.591479296875,60.7623591796875,61.416579296875Q61.0234591796875,61.241779296874995,61.2757591796875,61.054279296874995Q61.5279591796875,60.866779296874995,61.7706591796875,60.667179296875Q62.0134591796875,60.467479296875,62.246159179687496,60.256179296875004Q62.478859179687504,60.044779296875,62.7008591796875,59.822279296874996Q62.922959179687496,59.599679296874996,63.133859179687505,59.366479296875Q63.3446591796875,59.133279296875,63.543959179687505,58.889979296875Q63.743159179687495,58.646679296875,63.930259179687496,58.393979296875Q64.1172591796875,58.141179296874995,64.2917591796875,57.879479296875004Q64.4662591796875,57.617779296875,64.6276591796875,57.347779296875004Q64.7890591796875,57.077879296875,64.9371591796875,56.800279296875004Q65.08515917968751,56.522779296875,65.2194591796875,56.238279296875Q65.3536591796875,55.953779296875,65.47385917968751,55.662979296875Q65.59405917968749,55.372179296875004,65.69985917968751,55.075879296875Q65.8056591796875,54.779579296875,65.8967591796875,54.478379296875005Q65.9879591796875,54.177179296874996,66.0642591796875,53.871879296875Q66.1405591796875,53.566579296875,66.2018591796875,53.257879296875004Q66.2630591796875,52.949279296875,66.3091591796875,52.637979296875Q66.3552591796875,52.326579296874996,66.38605917968749,52.013379296875Q66.41685917968749,51.700179296875,66.43225917968749,51.385879296875004Q66.44765917968749,51.071479296875,66.44765917968749,50.756779296874996Q66.44765917968749,50.442079296875,66.43225917968749,50.127679296875Q66.41685917968749,49.813379296875,66.38605917968749,49.500179296875004Q66.3552591796875,49.186979296875,66.3091591796875,48.875579296875Q66.2630591796875,48.564279296875,66.2018591796875,48.255579296875Q66.1405591796875,47.946979296875,66.0642591796875,47.641649296875Q65.9879591796875,47.336349296875,65.8967591796875,47.035179296875Q65.8056591796875,46.734009296875,65.69985917968751,46.437679296875004Q65.59405917968749,46.141349296875,65.47385917968751,45.850579296875Q65.3536591796875,45.559809296875,65.2194591796875,45.275309296875Q65.08515917968751,44.990799296875,64.9371591796875,44.713239296875Q64.7890591796875,44.435669296875,64.6276591796875,44.165719296875Q64.4662591796875,43.895769296875,64.2917591796875,43.634089296875Q64.1172591796875,43.372399296875,63.930259179687496,43.119609296875Q63.743159179687495,42.866819296875,63.543959179687505,42.623539296875Q63.3446591796875,42.380249296875,63.133859179687505,42.147059296875Q62.922959179687496,41.913859296875,62.7008591796875,41.691319296875Q62.478859179687504,41.468769296875,62.246159179687496,41.257409296875Q62.0134591796875,41.046059296875,61.7706591796875,40.846399296875Q61.5279591796875,40.646739296875,61.2757591796875,40.459259296875Q61.0234591796875,40.271769296875,60.7623591796875,40.096919296875Q60.5012591796875,39.922069296875,60.2319591796875,39.760269296875Q59.9625591796875,39.598469296875,59.685659179687505,39.450109296875Q59.408659179687504,39.301749296875,59.1247591796875,39.167179296875Q58.8408591796875,39.032619296875,58.5507591796875,38.912181296875Q58.2606591796875,38.791741296875,57.9649591796875,38.685713296875Q57.6692591796875,38.579685296875,57.3687591796875,38.488325296875Q57.0682591796875,38.396965296875,56.7636591796875,38.320493296875Q56.4590591796875,38.244021296875,56.1510591796875,38.182621296875Q55.8430591796875,38.121221296875,55.532359179687504,38.075041296875Q55.221759179687496,38.028861996875,54.909259179687496,37.998013496875Q54.596759179687496,37.967164996875,54.2830591796875,37.951722096875Q53.9694591796875,37.936279296875,53.6553591796875,37.936279296875Q53.3413591796875,37.936279296875,53.0277591796875,37.951722096875Q52.714059179687496,37.967164996875,52.401559179687496,37.998013496875Q52.089059179687496,38.028861996875,51.7783591796875,38.075041296875Q51.4677591796875,38.121221296875,51.1597591796875,38.182621296875Q50.8517591796875,38.244021296875,50.5471391796875,38.320493296875Q50.2425191796875,38.396965296875,49.9420091796875,38.488325296875Q49.6414991796875,38.579685296875,49.345819179687496,38.685713296875Q49.0501491796875,38.791741296875,48.760019179687504,38.912181296875Q48.4698891796875,39.032619296875,48.1860091796875,39.167179296875Q47.9021291796875,39.301749296875,47.6251791796875,39.450109296875Q47.3482291796875,39.598469296875,47.0788691796875,39.760269296875Q46.8095191796875,39.922069296875,46.548409179687496,40.096919296875Q46.2872991796875,40.271769296875,46.0350691796875,40.459259296875Q45.7828391796875,40.646739296875,45.5400891796875,40.846399296875Q45.2973391796875,41.046059296875,45.0646491796875,41.257419296875Q44.8319691796875,41.468769296875,44.6099191796875,41.691319296875Q44.3878591796875,41.913859296875,44.176969179687504,42.147059296875Q43.9660791796875,42.380249296875,43.7668591796875,42.623539296875Q43.567639179687504,42.866829296875,43.3805791796875,43.119609296875Q43.1935091796875,43.372399296875,43.019039179687496,43.634089296875Q42.8445691796875,43.895769296875,42.6831291796875,44.165719296875Q42.5216791796875,44.435669296875,42.3736491796875,44.713239296875Q42.2256191796875,44.990799296875,42.0913491796875,45.275309296875Q41.9570891796875,45.559809296875,41.8369101796875,45.850579296875Q41.7167351796875,46.141349296875,41.6109411796875,46.437679296875004Q41.5051471796875,46.734009296875,41.4139881796875,47.035179296875Q41.3228301796875,47.336359296875,41.2465261796875,47.641649296875Q41.1702231796875,47.946979296875,41.1089581796875,48.255579296875Q41.0476941796875,48.564279296875,41.0016161796875,48.875579296875Q40.9555377796875,49.186979296875,40.9247572796875,49.500179296875004Q40.8939767796875,49.813379296875,40.8785679796875,50.127679296875Q40.8631591796875,50.442079296875,40.8631591796875,50.756779296874996Q40.8631591796875,51.071479296875,40.8785679796875,51.385879296875004Q40.8939767796875,51.700179296875,40.9247572796875,52.013379296875Q40.9555377796875,52.326579296874996,41.0016161796875,52.637979296875Q41.0476941796875,52.949279296875,41.1089581796875,53.257879296875004Q41.1702231796875,53.566579296875,41.2465261796875,53.871879296875Q41.3228301796875,54.177179296874996,41.4139881796875,54.478379296875005Q41.5051471796875,54.779579296875,41.6109411796875,55.075879296875Q41.7167351796875,55.372179296875004,41.8369101796875,55.662979296875Q41.9570891796875,55.953779296875,42.0913491796875,56.238279296875Q42.2256191796875,56.522779296875,42.3736491796875,56.800279296875004Q42.5216791796875,57.077879296875,42.6831291796875,57.347779296875004Q42.8445691796875,57.617779296875,43.019039179687496,57.879479296875004Q43.1935091796875,58.141179296874995,43.3805791796875,58.393979296875Q43.567639179687504,58.646679296875,43.7668591796875,58.889979296875Q43.9660791796875,59.133279296875,44.176969179687504,59.366479296875Q44.3878591796875,59.599679296874996,44.6099191796875,59.822279296874996Q44.8319691796875,60.044779296875,45.0646491796875,60.256179296875004Q45.2973391796875,60.467479296875,45.5400891796875,60.667179296875Q45.7828391796875,60.866779296874995,46.0350691796875,61.054279296874995Q46.2872991796875,61.241779296874995,46.548409179687496,61.416579296875Q46.8095191796875,61.591479296875,47.0788691796875,61.753279296875Q47.3482291796875,61.915079296875,47.6251791796875,62.063479296875Q47.9021291796875,62.211779296875,48.1860091796875,62.346379296875Q48.4698891796875,62.480879296875,48.760019179687504,62.601379296874995Q49.0501491796875,62.721779296875,49.345819179687496,62.827879296875Q49.6414991796875,62.933879296875,49.9420091796875,63.025179296874995Q50.2425191796875,63.116579296875,50.5471391796875,63.193079296875Q50.8517591796875,63.269479296875005,51.1597591796875,63.330879296875Q51.4677591796875,63.392279296875,51.7783591796875,63.438479296875Q52.089059179687496,63.484679296875,52.401559179687496,63.515579296875Q52.714059179687496,63.546379296875,53.0277591796875,63.561779296875Q53.3413591796875,63.577279296875,53.6553591796875,63.577279296875ZM54.1431591796875,53.705979296875C53.3288591796875,53.705979296875,52.6680591796875,53.044479296875,52.6680591796875,52.229379296875L52.6680591796875,45.338749296875C52.6680591796875,44.523679296875,53.3288591796875,43.862179296875,54.1431591796875,43.862179296875C54.9573591796875,43.862179296875,55.6182591796875,44.523679296875,55.6182591796875,45.338749296875L55.6182591796875,50.752779296875L59.0601591796875,50.752779296875C59.874559179687495,50.752779296875,60.535359179687504,51.414279296875,60.535359179687504,52.229379296875C60.535359179687504,53.044479296875,59.874559179687495,53.705979296875,59.0601591796875,53.705979296875L54.1431591796875,53.705979296875Z" fill-rule="evenodd" fill="#06C839" fill-opacity="0.4000000059604645" style="mix-blend-mode:passthrough"/></g></g></svg>