<svg xmlns="http://www.w3.org/2000/svg" xmlns:xlink="http://www.w3.org/1999/xlink" fill="none" version="1.1" width="16" height="16" viewBox="0 0 16 16"><defs><clipPath id="master_svg0_7_053"><rect x="0" y="0" width="16" height="16" rx="0"/></clipPath></defs><g clip-path="url(#master_svg0_7_053)"><g><path d="M8.00038,0C3.58133,0,0,3.58133,0,8.00038C0,12.4183,3.58133,16,8.00038,16C12.4183,16,16,12.4183,16,8.00038C16,3.58133,12.4183,0,8.00038,0ZM13.275,5.52076L7.25219,11.5436C7.10514,11.6907,6.91276,11.7638,6.72,11.7638C6.52724,11.7638,6.3341,11.6907,6.18743,11.5436L2.72457,8.08038C2.43048,7.78629,2.43048,7.30971,2.72457,7.016C3.01867,6.72152,3.49524,6.72152,3.78933,7.016L6.72,9.94667L12.2103,4.456C12.5044,4.1619,12.981,4.1619,13.275,4.456C13.5691,4.7501,13.5691,5.22667,13.275,5.52076Z" fill="#06C839" fill-opacity="1" style="mix-blend-mode:passthrough"/></g></g></svg>